<?xml version="1.0" encoding="utf-8"?>
<!-- Generator: Adobe Illustrator 21.0.0, SVG Export Plug-In . SVG Version: 6.00 Build 0)  -->
<svg version="1.1" id="Layer_1" xmlns="http://www.w3.org/2000/svg" xmlns:xlink="http://www.w3.org/1999/xlink" x="0px" y="0px"
	 viewBox="0 0 218.7 224.7" style="enable-background:new 0 0 218.7 224.7;" xml:space="preserve">
<style type="text/css">
	.st0{fill:#F8BC16;}
</style>
<path class="st0" d="M48.8,216.2c0.3,1.1-0.9,2.1-2,1.5c-14.5-8.5-26.8-20.6-35.4-35.6l-1.9,8.2c-0.2,0.8-0.9,1.3-1.7,1.1
	c-0.8-0.2-1.3-0.9-1.1-1.7l2.3-10.2l0.4-1.6c0.1-0.6,0.8-1,1.4-0.9l1.6,0.4l10.2,2.3c0.8,0.2,1.3,0.9,1.1,1.7s-0.9,1.3-1.7,1.1
	l-9-2.1C21.6,195.6,34.1,207.9,48.8,216.2z M212.4,154.5c2.6-9.9,3.6-19.8,3.1-29.5c0-0.5-0.4-0.9-0.8-1l0,0
	c-0.7-0.2-1.4,0.4-1.4,1.1c0.5,9.5-0.5,19.1-3,28.8c-5.3,20.2-16.9,37.2-32,49.4l0.8-8.9c0.1-0.8-0.5-1.5-1.3-1.6
	c-0.8-0.1-1.5,0.5-1.6,1.3l-1,10.4l-0.2,1.7c-0.1,0.7,0.4,1.2,1.1,1.3l1.7,0.2l10.4,1c0.8,0.1,1.5-0.5,1.6-1.3
	c0.1-0.8-0.5-1.5-1.3-1.6l-8.8-0.8C195.2,192.5,207,175.1,212.4,154.5z M135,18.2c0.3,0.6,0.1,1.3-0.5,1.6l-1.5,0.8l-9.3,4.8
	c-0.7,0.4-1.6,0.1-1.9-0.6c-0.4-0.7-0.1-1.6,0.6-1.9l7.9-4.1c0,0,0,0,0,0c-7.6-2-15.6-3-23.8-3c-30.6,0-56.1,12.4-73.4,35
	c-0.2,0.3-0.5,0.4-0.9,0.4h0c-0.9,0-1.5-1.1-0.9-1.8C49,26.2,75.2,13.4,106.5,13.4c8.4,0,16.6,1.1,24.3,3.1c0,0,0.1,0,0.1,0.1
	l-4.1-7.9c-0.4-0.7-0.1-1.6,0.6-1.9c0.7-0.4,1.6-0.1,1.9,0.6l4.8,9.3L135,18.2z M131.7,18L131.7,18C131.6,18,131.6,18,131.7,18
	L131.7,18z"/>
</svg>
