<?xml version="1.0" encoding="utf-8"?>
<!-- Generator: Adobe Illustrator 17.1.0, SVG Export Plug-In . SVG Version: 6.00 Build 0)  -->
<!DOCTYPE svg PUBLIC "-//W3C//DTD SVG 1.1//EN" "http://www.w3.org/Graphics/SVG/1.1/DTD/svg11.dtd">
<svg version="1.1" id="Layer_1" xmlns="http://www.w3.org/2000/svg" xmlns:xlink="http://www.w3.org/1999/xlink" x="0px" y="0px"
	 viewBox="0 0 60 60" enable-background="new 0 0 60 60" xml:space="preserve">
<path fill="#F7BB16" d="M30.4,2.1h-0.9V1.2h0.9V2.1z M30.4,54.3h-0.9v1.8h0.9V54.3z M30.4,50.7h-0.9v1.8h0.9V50.7z M30.4,47.1h-0.9
	v1.8h0.9V47.1z M30.4,43.5h-0.9v1.8h0.9V43.5z M30.4,39.9h-0.9v1.8h0.9V39.9z M30.4,36.3h-0.9v1.8h0.9V36.3z M30.4,32.7h-0.9v1.8
	h0.9V32.7z M30.4,29.1h-0.9v1.8h0.9V29.1z M30.4,25.5h-0.9v1.8h0.9V25.5z M30.4,21.9h-0.9v1.8h0.9V21.9z M30.4,18.3h-0.9v1.8h0.9
	V18.3z M30.4,14.7h-0.9v1.8h0.9V14.7z M30.4,11.1h-0.9v1.8h0.9V11.1z M30.4,7.5h-0.9v1.8h0.9V7.5z M30.4,3.9h-0.9v1.8h0.9V3.9z
	 M30.4,57.9h-0.9v0.9h0.9V57.9z M36.9,6.8L30.1,0l-0.6,0.6l6.8,6.8L36.9,6.8z M30.5,0.6L29.9,0l-6.8,6.8l0.6,0.6L30.5,0.6z"/>
</svg>
