<?xml version="1.0" encoding="utf-8"?>
<!-- Generator: Adobe Illustrator 21.0.0, SVG Export Plug-In . SVG Version: 6.00 Build 0)  -->
<svg version="1.1" id="Layer_1" xmlns="http://www.w3.org/2000/svg" xmlns:xlink="http://www.w3.org/1999/xlink" x="0px" y="0px"
	 viewBox="0 0 100 100" style="enable-background:new 0 0 100 100;" xml:space="preserve">
<style type="text/css">
	.st0{fill:#F8BC16;}
	.st1{fill:#D3D3D3;}
	.st2{fill:#FFFFFF;}
	.st3{fill:#4E5253;}
</style>
<g>
	<path class="st0" d="M30.7,24.6c0-10.7,8.6-15.8,19.3-15.8s19.3,5.1,19.3,15.8l-8.8,3.5L50,24.6l-10.5-3.5L30.7,24.6z"/>
	<path class="st1" d="M67.5,68.4c12.3,7,29.8,5.3,29.8,22.8v7H2.6v-7c0-17.5,17.5-15.8,29.8-22.8H67.5z M30.7,24.6
		c-4.8,0-8.8,3.9-8.8,8.8s3.9,8.8,8.8,8.8V24.6z M69.3,42.1c4.8,0,8.8-3.9,8.8-8.8s-3.9-8.8-8.8-8.8V42.1z"/>
	<path class="st2" d="M60.5,59.6L50,63.2l-10.5-3.5v-7L50,54.4l10.5-1.8V59.6z M67.5,68.4L64,59.6l-14,3.5l-14-3.5l-3.5,8.8L43,77.2
		l7-7l7,7L67.5,68.4z M60.5,28.1L50,24.6l-10.5-3.5l-8.8,3.5v10.5c1.8,12.3,8.8,17.5,8.8,17.5C43,54.4,50,54.4,50,54.4s7,0,10.5-1.8
		c0,0,7-5.3,8.8-17.5V24.6L60.5,28.1z"/>
	<path class="st3" d="M79.8,71.4c-3.7-1.2-7.5-2.4-10.8-4.2l-3.8-9.6l-2.8,0.7v-4.8c1.3-1.1,3.9-4,6.1-8.8c0.7-0.3,1.2-0.6,1.6-0.8
		c5.5-0.3,9.9-4.9,9.9-10.5c0-2.2-0.7-4.2-1.8-5.8C77.8,10.8,66.9,0,50,0S22.2,10.8,21.9,27.5c-1.1,1.7-1.8,3.7-1.8,5.8
		c0,5.8,4.7,10.5,10.5,10.5h0.6c2.2,5.3,5.1,8.4,6.5,9.6v4.8l-2.8-0.7l-3.8,9.6c-3.3,1.8-7.1,3-10.8,4.2c-9.5,3-19.4,6.2-19.4,19.8
		v8.8h98.2v-8.8C99.1,77.6,89.3,74.4,79.8,71.4z M70,40.3c0.4-1.5,0.8-3.2,1.1-5l0-8.8c3,0.8,5.3,3.5,5.3,6.8
		C76.3,37,73.5,40,70,40.3z M50,3.5c11,0,22.6,5.5,24.3,20.6c-1-0.6-2.2-0.9-3.4-1.1C70.2,13.2,62.1,7,50,7S29.8,13.2,29,23
		c-1.2,0.2-2.3,0.6-3.4,1.1C27.4,9,39,3.5,50,3.5z M67.5,23.4l-7,2.8l-21.1-7l-6.7,2.7c1.5-8.3,9.6-11.3,17.3-11.3
		C58.2,10.5,66.8,13.9,67.5,23.4z M23.7,33.3c0-3.3,2.2-6,5.3-6.8v8.5l0,0.2c0.3,1.8,0.6,3.5,1.1,5C26.5,40,23.7,37,23.7,33.3z
		 M32.5,35v-9.2l7.1-2.8l21.1,7l7-2.8V35c-0.4,2.7-1.1,5-1.8,7c-2.5,0.9-7.2,1.9-15.7,1.9v3.5c6.1,0,10.5-0.5,13.6-1.2
		c-1.8,3-3.6,4.6-4,5c-2.6,1.2-7.8,1.5-9.6,1.5c-1.8,0-7-0.3-9.6-1.5C39.5,50.4,34,45.4,32.5,35z M41.2,55.1c3.8,1,8.5,1,8.8,1
		s4.9,0,8.8-1v4L50,61.3l-8.8-2.2V55.1z M37,61.7L50,65l13-3.2l2.5,6.2l-8.3,6.9L50,67.7l-7.1,7.1l-8.3-6.9L37,61.7z M95.6,96.5H4.4
		v-5.3c0-11.1,7.5-13.5,16.9-16.5c3.7-1.2,7.4-2.4,10.9-4.2l10.8,9l6.9-6.9l6.9,6.9l10.8-9c3.5,1.8,7.3,3,10.9,4.2
		c9.5,3,16.9,5.4,16.9,16.5V96.5z M48.2,89.5h3.5V93h-3.5V89.5z M48.2,82.5h3.5V86h-3.5V82.5z"/>
</g>
</svg>
