<?xml version="1.0" encoding="utf-8"?>
<!-- Generator: Adobe Illustrator 21.0.0, SVG Export Plug-In . SVG Version: 6.00 Build 0)  -->
<svg version="1.1" id="Layer_1" xmlns="http://www.w3.org/2000/svg" xmlns:xlink="http://www.w3.org/1999/xlink" x="0px" y="0px"
	 viewBox="0 0 120 120" style="enable-background:new 0 0 120 120;" xml:space="preserve">
<style type="text/css">
	.st0{fill:#FFFFFF;}
	.st1{fill:#D3D3D3;}
	.st2{fill:#F7BB16;}
	.st3{fill:#4D5152;}
</style>
<path class="st0" d="M118,60c0,32-26,58-58,58S2,92,2,60S28,2,60,2S118,28,118,60z"/>
<path class="st1" d="M104,60c0,24.3-19.7,44-44,44c-24.3,0-44-19.7-44-44s19.7-44,44-44C84.3,16,104,35.7,104,60z"/>
<path class="st2" d="M76,88l20,6l6,6c-10.6,11.1-25.5,18-42,18c-16.5,0-31.4-7-42-18l6-6l20-6H76z M50,44l10,4l10,4l8-4
	c0-12.2-5.8-18-18-18c-12.2,0-18,5.8-18,18L50,44z"/>
<path class="st0" d="M68,96l-8-4l-8,4l-8-8l4-6h2v-8l10,2l10-2v8h2l4,6L68,96z M70,52l-20-8l-8,4v8c2,14,8,18,8,18c4,2,10,2,10,2
	s6,0,10-2c0,0,6-4,8-18v-8L70,52z"/>
<path class="st3" d="M60,0C26.9,0,0,26.9,0,60c0,15.9,6.2,30.3,16.3,41c0.1,0.1,0.2,0.2,0.3,0.3c0.9,1,1.9,1.9,2.9,2.8
	c0.2,0.2,0.4,0.4,0.6,0.5c0.5,0.4,1,0.9,1.5,1.3c0.3,0.3,0.7,0.5,1,0.8c0.4,0.3,0.8,0.7,1.3,1c0.4,0.3,0.8,0.6,1.2,0.9
	c0.4,0.3,0.8,0.6,1.2,0.9c0.4,0.3,0.8,0.5,1.2,0.8c0.4,0.3,0.9,0.6,1.3,0.8c0.3,0.2,0.7,0.4,1,0.6c0.5,0.3,1,0.6,1.5,0.9
	c0.3,0.1,0.5,0.3,0.8,0.4c0.6,0.3,1.3,0.7,1.9,1c0.1,0.1,0.2,0.1,0.3,0.2C42.3,118,51,120,60,120c16.6,0,32-6.6,43.4-18.6
	c0.1-0.1,0.2-0.2,0.3-0.3C113.8,90.3,120,75.9,120,60C120,26.9,93.1,0,60,0z M63.1,115.9c-0.1,0-0.2,0-0.3,0c-0.9,0-1.9,0.1-2.9,0.1
	c-0.9,0-1.9,0-2.8-0.1c-0.3,0-0.5,0-0.8-0.1c-0.7,0-1.3-0.1-2-0.2c-0.3,0-0.6-0.1-0.9-0.1c-0.6-0.1-1.3-0.1-1.9-0.2
	c-0.3,0-0.6-0.1-0.9-0.1c-0.6-0.1-1.3-0.2-1.9-0.3c-0.3-0.1-0.5-0.1-0.8-0.2c-0.6-0.1-1.3-0.3-1.9-0.4c-0.3-0.1-0.5-0.1-0.8-0.2
	c-0.6-0.2-1.2-0.3-1.8-0.5c-0.3-0.1-0.5-0.2-0.8-0.3c-0.6-0.2-1.2-0.4-1.8-0.6c-0.3-0.1-0.6-0.2-0.8-0.3c-0.6-0.2-1.1-0.4-1.7-0.7
	c-0.3-0.1-0.6-0.3-0.9-0.4c-0.5-0.2-1-0.4-1.5-0.7c-0.4-0.2-0.7-0.3-1-0.5c-0.4-0.2-0.9-0.4-1.3-0.7c-0.4-0.2-0.8-0.4-1.2-0.7
	c-0.4-0.2-0.8-0.4-1.1-0.7c-0.4-0.3-0.8-0.5-1.3-0.8c-0.3-0.2-0.7-0.4-1-0.6c-0.4-0.3-0.9-0.6-1.3-0.9c-0.3-0.2-0.6-0.4-0.9-0.7
	c-0.4-0.3-0.8-0.6-1.2-0.9c-0.3-0.3-0.7-0.5-1-0.8c-0.3-0.2-0.6-0.5-0.9-0.8c-0.4-0.4-0.9-0.7-1.3-1.1c-0.1-0.1-0.2-0.2-0.4-0.3
	c-0.4-0.4-0.9-0.8-1.3-1.2l4.2-4.2l18.4-5.5l8.2,8.2l8.4-4.2l8.4,4.2l8.2-8.2l18.4,5.5l4.2,4.2C89.7,109.2,77.1,115.1,63.1,115.9z
	 M50.1,46.2l20,8l5.9-3v4.6c-1.7,11.8-6.4,15.9-7,16.4C65.4,74,60.1,74,60,74c-0.1,0-5.4,0-9-1.7c-0.6-0.5-5.3-4.6-7-16.4v-6.6
	L50.1,46.2z M44.2,44.7C45.1,36,50.1,32,60,32c10.6,0,15.6,4.6,16,14.8l-6.1,3l-20-8L44.2,44.7z M68,76.9v3.8L60,82l-8-1.3v-3.8
	c3.8,1.1,7.8,1.1,8,1.1S64.2,78,68,76.9z M60,86l11.1-1.8l2.4,3.6l-5.8,5.8L60,89.8l-7.6,3.8l-5.8-5.8l2.4-3.6L60,86z M101.9,97.1
	l-4.5-4.5c-0.2-0.2-0.5-0.4-0.8-0.5l-19.3-5.8l-4.3-6.5L72,80v-5c1.9-1.8,6.3-7,8-18.6l0-8.3c0-13.3-6.7-20-20-20s-20,6.7-20,20v8
	l0,0.3c1.7,11.7,6.1,16.9,8,18.6v5l-0.9-0.2l-4.3,6.5l-19.3,5.8c-0.3,0.1-0.6,0.3-0.8,0.5l-4.5,4.5C9.3,87.2,4,74.2,4,60
	C4,29.1,29.1,4,60,4c30.9,0,56,25.1,56,56C116,74.2,110.7,87.2,101.9,97.1z M58,100h4v4h-4V100z M58,108h4v4h-4V108z"/>
</svg>
