<?xml version="1.0" encoding="utf-8"?>
<!-- Generator: Adobe Illustrator 21.0.0, SVG Export Plug-In . SVG Version: 6.00 Build 0)  -->
<svg version="1.1" id="Layer_1" xmlns="http://www.w3.org/2000/svg" xmlns:xlink="http://www.w3.org/1999/xlink" x="0px" y="0px"
	 viewBox="0 0 120 120" style="enable-background:new 0 0 120 120;" xml:space="preserve">
<style type="text/css">
	.st0{fill:#FFFFFF;}
	.st1{fill:#F7BB16;}
	.st2{fill:#D3D3D3;}
	.st3{fill:#606565;}
</style>
<path class="st0" d="M118.1,69.4H37.5V11.3h80.6V69.4z"/>
<path class="st1" d="M112.5,56.3H41.2V16.9h71.3V56.3z"/>
<path class="st2" d="M35.6,39.4v30H1.9V41.3C1.9,34,7.8,28.1,15,28.1h15h35.6v11.2H35.6z M114.4,118.1c1.9,0,3.8-2.5,3.8-5.6
	c0-3.1,0-3.8,0-3.8l-13.1-7.5H93.7l-13.1,7.5l0,0l-15-7.5H54.4l-15,7.5l0,0l-13.1-7.5H15l-13.1,7.5c0,0,0,0.6,0,3.8
	c0,3.1,1.9,5.6,3.8,5.6H114.4z"/>
<path class="st0" d="M22.5,1.9c-5.2,0-9.4,4.2-9.4,9.4s4.2,9.4,9.4,9.4c5.2,0,9.4-4.2,9.4-9.4S27.7,1.9,22.5,1.9z M20.6,80.6
	c-7.5,0-9.4,3.8-9.4,10.3s3.7,12.2,9.4,12.2c5.7,0,9.4-5.6,9.4-12.2S28.1,80.6,20.6,80.6z M60,80.6c-7.5,0-9.4,3.8-9.4,10.3
	s3.7,12.2,9.4,12.2c5.7,0,9.4-5.6,9.4-12.2S67.5,80.6,60,80.6z M99.4,80.6c-7.5,0-9.4,3.8-9.4,10.3s3.7,12.2,9.4,12.2
	c5.7,0,9.4-5.6,9.4-12.2S106.9,80.6,99.4,80.6z"/>
<path class="st3" d="M22.5,22.5c6.2,0,11.3-5,11.3-11.3C33.8,5,28.7,0,22.5,0c-6.2,0-11.3,5-11.3,11.3
	C11.3,17.5,16.3,22.5,22.5,22.5z M22.5,3.8c4.1,0,7.5,3.4,7.5,7.5c0,4.1-3.4,7.5-7.5,7.5c-4.1,0-7.5-3.4-7.5-7.5
	C15,7.1,18.4,3.8,22.5,3.8z M120,9.4v61.9H33.8V37.5h30V30H15C8.8,30,3.8,35,3.8,41.3v26.3h7.5v-15H15v18.8H0v-30
	c0-8.3,6.7-15,15-15h52.5v15h-30v26.3h78.8V13.1H37.5V9.4H120z M41.3,60h71.3v3.8H41.3V60z M110.6,90.9c0-5.7-1.3-12.2-11.3-12.2
	c-10,0-11.3,6.5-11.3,12.2c0,3.8,1.1,7.2,3,9.7l-10.5,6l-12.2-6.1c1.8-2.5,2.9-5.8,2.9-9.6c0-5.7-1.3-12.2-11.3-12.2
	c-10,0-11.3,6.5-11.3,12.2c0,3.8,1.1,7.1,2.9,9.6l-12.2,6.1l-10.5-6c1.8-2.5,3-5.9,3-9.7c0-5.7-1.3-12.2-11.3-12.2
	c-10,0-11.3,6.5-11.3,12.2c0,3.8,1.1,7.2,3,9.7l-12.3,7v4.8c0,4.1,2.6,7.5,5.6,7.5h108.8c3,0,5.6-3.4,5.6-7.5v-4.8l-12.3-7
	C109.5,98.1,110.6,94.8,110.6,90.9z M99.4,82.5c5.7,0,7.5,2,7.5,8.4c0,5-2.6,10.3-7.5,10.3c-4.9,0-7.5-5.3-7.5-10.3
	C91.9,84.5,93.7,82.5,99.4,82.5z M60,82.5c5.7,0,7.5,2,7.5,8.4c0,5-2.6,10.3-7.5,10.3c-4.9,0-7.5-5.3-7.5-10.3
	C52.5,84.5,54.3,82.5,60,82.5z M20.6,82.5c5.7,0,7.5,2,7.5,8.4c0,5-2.6,10.3-7.5,10.3c-4.9,0-7.5-5.3-7.5-10.3
	C13.1,84.5,14.9,82.5,20.6,82.5z M116.3,112.5c0,2.3-1.3,3.8-1.9,3.8H5.6c-0.6,0-1.9-1.5-1.9-3.8v-2.7l11.4-6.5
	c1.6,1.1,3.5,1.7,5.5,1.7c2,0,3.9-0.6,5.5-1.7l11.4,6.5v4.5h3.8v-4.5l13.2-6.6c1.6,1.1,3.5,1.7,5.5,1.7s3.9-0.6,5.5-1.7l13.2,6.6
	v4.5h3.8v-4.5l11.4-6.5c1.6,1.1,3.5,1.7,5.5,1.7c2,0,3.9-0.6,5.5-1.7l11.4,6.5V112.5z M24.4,33.8v3.8h-3.8v-3.8H24.4z"/>
</svg>
