<?xml version="1.0" encoding="utf-8"?>
<!-- Generator: Adobe Illustrator 21.0.0, SVG Export Plug-In . SVG Version: 6.00 Build 0)  -->
<svg version="1.1" id="Layer_1" xmlns="http://www.w3.org/2000/svg" xmlns:xlink="http://www.w3.org/1999/xlink" x="0px" y="0px"
	 viewBox="0 0 120 120" style="enable-background:new 0 0 120 120;" xml:space="preserve">
<style type="text/css">
	.st0{fill:#FFFFFF;}
	.st1{fill:#F7BB16;}
	.st2{fill:#D3D3D3;}
	.st3{fill:#4D5152;}
</style>
<g>
	<path class="st0" d="M69.9,118H6.4V10.8l7.9-7.9l7.9,7.9l7.9-7.9l7.9,7.9l7.9-7.9l7.9,7.9L62,2.8l7.9,7.9l7.9-7.9l7.9,7.9v91.4
		L69.9,118z M97.7,98.2v9.9l7.9,7.9l7.9-7.9v-9.9H97.7z M97.7,18.7h15.9V8.8c0-3.3-2.7-6-6-6h-4c-3.3,0-6,2.7-6,6V18.7z"/>
	<path class="st1" d="M30.2,34.6c0,4.4-3.6,7.9-7.9,7.9s-7.9-3.6-7.9-7.9s3.6-7.9,7.9-7.9S30.2,30.2,30.2,34.6z M22.3,50.5
		c-4.4,0-7.9,3.6-7.9,7.9s3.6,7.9,7.9,7.9s7.9-3.6,7.9-7.9S26.6,50.5,22.3,50.5z M22.3,74.3c-4.4,0-7.9,3.6-7.9,7.9s3.6,7.9,7.9,7.9
		s7.9-3.6,7.9-7.9S26.6,74.3,22.3,74.3z M97.7,18.7v79.5h15.9V18.7H97.7z"/>
	<path class="st2" d="M69.9,118v-15.9h15.9L69.9,118z"/>
	<path class="st3" d="M40.1,52.5h35.8v4H40.1V52.5z M77.9,0l9.9,9.9v93L70.8,120H4.4V9.9L14.3,0l7.9,7.9L30.2,0l7.9,7.9L46.1,0
		L54,7.9L62,0l7.9,7.9L77.9,0z M81,104.1h-9.1v9.1L81,104.1z M83.8,11.6l-6-6l-7.9,7.9L62,5.6L54,13.6l-7.9-7.9l-7.9,7.9l-7.9-7.9
		l-7.9,7.9l-7.9-7.9l-6,6V116h59.6v-15.9h15.9V11.6z M22.3,33.8l-2.6-2.6L16.9,34l5.4,5.4l9.3-9.3l-2.8-2.8L22.3,33.8z M22.3,57.6
		L19.7,55l-2.8,2.8l5.4,5.4l9.3-9.3l-2.8-2.8L22.3,57.6z M22.3,81.4l-2.6-2.6l-2.8,2.8l5.4,5.4l9.3-9.3l-2.8-2.8L22.3,81.4z
		 M40.1,32.6h35.8v-4H40.1V32.6z M64,36.6H40.1v4H64V36.6z M56,60.4H40.1v4H56V60.4z M40.1,80.3h35.8v-4H40.1V80.3z M40.1,88.2h11.9
		v-4H40.1V88.2z M56,88.2h11.9v-4H56V88.2z M115.6,8.8v9.9v2v75.5v2v10.8l-7.9,7.9v3.2h-4v-3.2l-7.9-7.9V98.2v-2V20.7v-2V8.8
		c0-4.4,3.6-7.9,7.9-7.9h4C112.1,0.8,115.6,4.4,115.6,8.8z M99.7,96.2h4V20.7h-4V96.2z M111.6,100.1H99.7v7.1l6,6l6-6V100.1z
		 M111.6,20.7h-4v75.5h4V20.7z M111.6,8.8c0-2.2-1.8-4-4-4h-4c-2.2,0-4,1.8-4,4v7.9h11.9V8.8z"/>
</g>
</svg>
