<?xml version="1.0" encoding="utf-8"?>
<!-- Generator: Adobe Illustrator 21.0.0, SVG Export Plug-In . SVG Version: 6.00 Build 0)  -->
<svg version="1.1" id="Layer_1" xmlns="http://www.w3.org/2000/svg" xmlns:xlink="http://www.w3.org/1999/xlink" x="0px" y="0px"
	 viewBox="0 0 54 54" style="enable-background:new 0 0 54 54;" xml:space="preserve">
<style type="text/css">
	.st0{fill:#030303;}
</style>
<path class="st0" d="M0,27c0,14.9,12.1,27,27,27s27-12.1,27-27C54,12.1,41.9,0,27,0S0,12.1,0,27z M2.7,27C2.7,13.6,13.6,2.7,27,2.7
	S51.3,13.6,51.3,27S40.4,51.3,27,51.3S2.7,40.4,2.7,27z M21,27.5c-0.5-0.5-0.5-1.4,0.1-1.9l10-9.1c0.5-0.5,1.4-0.5,1.9,0.1l0,0
	c0.5,0.5,0.5,1.4-0.1,1.9l-9,8.2l8.2,9c0.5,0.5,0.5,1.4-0.1,1.9l0,0c-0.5,0.5-1.4,0.5-1.9-0.1l-8.2-9l0,0L21,27.5z"/>
</svg>
