<?xml version="1.0" encoding="utf-8"?>
<!-- Generator: Adobe Illustrator 21.0.0, SVG Export Plug-In . SVG Version: 6.00 Build 0)  -->
<svg version="1.1" id="Layer_1" xmlns="http://www.w3.org/2000/svg" xmlns:xlink="http://www.w3.org/1999/xlink" x="0px" y="0px"
	 viewBox="0 0 54 54" style="enable-background:new 0 0 54 54;" xml:space="preserve">
<style type="text/css">
	.st0{fill:#030303;}
</style>
<path class="st0" d="M27,0C12.1,0,0,12.1,0,27c0,14.9,12.1,27,27,27s27-12.1,27-27C54,12.1,41.9,0,27,0z M27,51.3
	C13.6,51.3,2.7,40.4,2.7,27S13.6,2.7,27,2.7S51.3,13.6,51.3,27S40.4,51.3,27,51.3z M32.1,28.5L32.1,28.5l-8.2,9
	C23.3,38,22.5,38,22,37.5l0,0c-0.5-0.5-0.6-1.3-0.1-1.9l8.2-9l-9-8.2c-0.5-0.5-0.6-1.3-0.1-1.9l0,0c0.5-0.5,1.3-0.6,1.9-0.1l10,9.1
	c0.5,0.5,0.6,1.3,0.1,1.9L32.1,28.5z"/>
</svg>
