<?xml version="1.0" encoding="utf-8"?>
<!-- Generator: Adobe Illustrator 21.0.0, SVG Export Plug-In . SVG Version: 6.00 Build 0)  -->
<svg version="1.1" id="Layer_1" xmlns="http://www.w3.org/2000/svg" xmlns:xlink="http://www.w3.org/1999/xlink" x="0px" y="0px"
	 viewBox="0 0 120 120" style="enable-background:new 0 0 120 120;" xml:space="preserve">
<style type="text/css">
	.st0{fill:#F7BB16;}
	.st1{fill:#F4F5F5;}
	.st2{fill:#D3D3D3;}
	.st3{fill:#4D5152;}
</style>
<path class="st0" d="M113.5,41.1H6.5L60,6.7L113.5,41.1z"/>
<path class="st1" d="M60,33.4c-4.2,0-7.6-3.4-7.6-7.6s3.4-7.6,7.6-7.6c4.2,0,7.6,3.4,7.6,7.6S64.2,33.4,60,33.4z M10.3,56.4h19.1
	v-5.7H10.3V56.4z M37.1,56.4h19.1v-5.7H37.1V56.4z M63.8,56.4h19.1v-5.7H63.8V56.4z M90.6,50.6v5.7h19.1v-5.7H90.6z M90.6,96.5h19.1
	v-5.7H90.6V96.5z M63.8,96.5h19.1v-5.7H63.8V96.5z M37.1,96.5h19.1v-5.7H37.1V96.5z M10.3,96.5h19.1v-5.7H10.3V96.5z M42.8,58.3
	v30.6h7.6V58.3H42.8z M16.1,58.3v30.6h7.6V58.3H16.1z M69.6,58.3v30.6h7.6V58.3H69.6z M96.3,58.3v30.6h7.6V58.3H96.3z"/>
<path class="st2" d="M113.5,113.7H6.5V98.4h107V113.7z M6.5,43v5.7h107V43H6.5z"/>
<path class="st3" d="M60,4.4L0,43h4.6v7.6h3.8v7.6h3.8v30.6H8.4v7.6H4.6v19.1h110.8V96.5h-3.8v-7.6h-3.8V58.3h3.8v-7.6h3.8V43h4.6
	L60,4.4z M60,9l47,30.2H13L60,9z M92.5,58.3v30.6h-3.8v7.6h-3.8v-7.6H81V58.3h3.8v-7.6h3.8v7.6H92.5z M69.6,58.3h7.6v30.6h-7.6V58.3
	z M81,92.7v3.8H65.7v-3.8H81z M81,54.4H65.7v-3.8H81V54.4z M65.7,58.3v30.6h-3.8v7.6h-3.8v-7.6h-3.8V58.3h3.8v-7.6h3.8v7.6H65.7z
	 M42.8,58.3h7.6v30.6h-7.6V58.3z M54.3,92.7v3.8H39v-3.8H54.3z M54.3,54.4H39v-3.8h15.3V54.4z M39,58.3v30.6h-3.8v7.6h-3.8v-7.6
	h-3.8V58.3h3.8v-7.6h3.8v7.6H39z M27.5,54.4H12.2v-3.8h15.3V54.4z M16.1,58.3h7.6v30.6h-7.6V58.3z M12.2,92.7h15.3v3.8H12.2V92.7z
	 M111.6,111.8H8.4v-3.8h103.2V111.8z M111.6,104.1H8.4v-3.8h103.2V104.1z M92.5,96.5v-3.8h15.3v3.8H92.5z M103.9,88.8h-7.6V58.3h7.6
	V88.8z M107.8,54.4H92.5v-3.8h15.3V54.4z M111.6,46.8H8.4V43h103.2V46.8z"/>
</svg>
