<?xml version="1.0" encoding="utf-8"?>
<!-- Generator: Adobe Illustrator 21.0.0, SVG Export Plug-In . SVG Version: 6.00 Build 0)  -->
<svg version="1.1" id="Layer_1" xmlns="http://www.w3.org/2000/svg" xmlns:xlink="http://www.w3.org/1999/xlink" x="0px" y="0px"
	 viewBox="0 0 32 32" style="enable-background:new 0 0 32 32;" xml:space="preserve">
<path d="M31.6,29.7c0.5,0.5,0.5,1.4,0,1.9l0,0c-0.5,0.5-1.4,0.5-1.9,0L16,17.9L2.3,31.6c-0.5,0.5-1.4,0.5-1.9,0l0,0
	c-0.5-0.5-0.5-1.4,0-1.9L14.1,16L0.4,2.3c-0.5-0.5-0.5-1.4,0-1.9l0,0c0.5-0.5,1.4-0.5,1.9,0L16,14.1L29.7,0.4c0.5-0.5,1.4-0.5,1.9,0
	l0,0c0.5,0.5,0.5,1.4,0,1.9L17.9,16L31.6,29.7z"/>
</svg>
