<?xml version="1.0" encoding="utf-8"?>
<!-- Generator: Adobe Illustrator 21.0.0, SVG Export Plug-In . SVG Version: 6.00 Build 0)  -->
<svg version="1.1" id="Layer_1" xmlns="http://www.w3.org/2000/svg" xmlns:xlink="http://www.w3.org/1999/xlink" x="0px" y="0px"
	 viewBox="0 0 100 100" style="enable-background:new 0 0 100 100;" xml:space="preserve">
<style type="text/css">
	.st0{fill:none;}
	.st1{fill:#4E5253;}
	.st2{fill:#F8BC16;}
	.st3{fill:#FFFFFF;}
</style>
<g>
	<path class="st0" d="M57.7,89.1H45.2V76.6h12.5V89.1z"/>
	<path class="st0" d="M95.2,71.9c0,2.6-2.1,4.7-4.7,4.7H12.4c-2.6,0-4.7-2.1-4.7-4.7V15.6c0-2.6,2.1-4.7,4.7-4.7h78.1
		c2.6,0,4.7,2.1,4.7,4.7V71.9z"/>
	<path class="st1" d="M90.5,9.4H12.4c-3.4,0-6.2,2.8-6.2,6.3v56.3c0,3.4,2.8,6.3,6.2,6.3h31.3v9.4h-3.1v3.1h21.9v-3.1h-3.1v-9.4
		h31.3c3.4,0,6.3-2.8,6.3-6.3V15.6C96.8,12.2,94,9.4,90.5,9.4z M12.4,12.5h78.1c1.7,0,3.1,1.4,3.1,3.1v46.9H9.3V15.6
		C9.3,13.9,10.7,12.5,12.4,12.5z M56.2,87.5h-9.4v-9.4h9.4V87.5z M90.5,75H12.4c-1.7,0-3.1-1.4-3.1-3.1v-6.3h84.4v6.3
		C93.7,73.6,92.3,75,90.5,75z M49.9,68.8H53v3.1h-3.1V68.8z"/>
	<path class="st2" d="M90.5,59.4H12.4V15.6h78.1V59.4z"/>
	<path class="st3" d="M31.2,28.1H15.5v-9.4h15.6V28.1z M31.2,31.3H15.5v25h15.6V31.3z M49.9,18.8H34.3v9.4h15.6V18.8z M49.9,31.3
		H34.3v25h15.6V31.3z M68.7,18.8H53v9.4h15.6V18.8z M68.7,31.3H53v25h15.6V31.3z M87.4,18.8H71.8v9.4h15.6V18.8z M87.4,31.3H71.8v25
		h15.6V31.3z"/>
	<path class="st3" d="M98.4,85.9c0,1.7-1.4,3.1-3.1,3.1H79.6c-1.7,0-3.1-1.4-3.1-3.1V54.7c0-1.7,1.4-3.1,3.1-3.1h15.6
		c1.7,0,3.1,1.4,3.1,3.1V85.9z"/>
	<path class="st2" d="M97.4,65.2h-20V52.8h20V65.2z"/>
	<path class="st1" d="M95.2,50H79.6c-2.6,0-4.7,2.1-4.7,4.7v31.3c0,2.6,2.1,4.7,4.7,4.7h15.6c2.6,0,4.7-2.1,4.7-4.7V54.7
		C99.9,52.1,97.8,50,95.2,50z M79.6,53.1h15.6c0.9,0,1.6,0.7,1.6,1.6v7.6H78v-7.6C78,53.8,78.7,53.1,79.6,53.1z M95.2,87.5H79.6
		c-0.9,0-1.6-0.7-1.6-1.6V65.4h18.8v20.5C96.8,86.8,96.1,87.5,95.2,87.5z M84.2,70.4h-3.1v-3.1h3.1V70.4z M89.4,70.4h-3.1v-3.1h3.1
		V70.4z M91.4,67.3h3.1v3.1h-3.1V67.3z M84.2,75.5h-3.1v-3.1h3.1V75.5z M89.4,75.5h-3.1v-3.1h3.1V75.5z M91.4,72.4h3.1v3.1h-3.1
		V72.4z M84.2,80.6h-3.1v-3.1h3.1V80.6z M89.4,80.6h-3.1v-3.1h3.1V80.6z M91.4,77.5h3.1v3.1h-3.1V77.5z M81.1,82.7h13.2v3.1H81.1
		V82.7z"/>
	<path class="st3" d="M35.9,84.9c0,1.7-1.4,3.1-3.1,3.1H4.6c-1.7,0-3.1-1.4-3.1-3.1V60.9c0-1.7,1.4-3.1,3.1-3.1h28.1
		c1.7,0,3.1,1.4,3.1,3.1V84.9z"/>
	<path class="st1" d="M32.9,90.6H4.8c-2.6,0-4.7-2.1-4.7-4.7V61.9c0-2.6,2.1-4.7,4.7-4.7h28.1c2.6,0,4.7,2.1,4.7,4.7v24.1
		C37.6,88.5,35.5,90.6,32.9,90.6z M4.8,60.3c-0.9,0-1.6,0.7-1.6,1.6v24.1c0,0.9,0.7,1.6,1.6,1.6h28.1c0.9,0,1.6-0.7,1.6-1.6V61.9
		c0-0.9-0.7-1.6-1.6-1.6H4.8z M22,81.3h-6.2v3.1H22V81.3z"/>
	<path class="st3" d="M26.2,62.5H7.9V44.8l3.1-3.1l3.1,3.1l3.1-3.1l3.1,3.1l3.1-3.1l3.1,3.1V62.5z"/>
	<path class="st1" d="M27.5,64H6.2V44.2l4.6-4.6l3.1,3.1l3.1-3.1l3.1,3.1l3.1-3.1l4.6,4.6V64z M9.2,61h15.3V45.5l-1.5-1.5L19.9,47
		l-3.1-3.1L13.8,47l-3.1-3.1l-1.5,1.5V61z M21.4,54.9h-9.2v3.1h9.2V54.9z M21.4,48.8h-9.2v3.1h9.2V48.8z"/>
</g>
</svg>
