<?xml version="1.0" encoding="utf-8"?>
<!-- Generator: Adobe Illustrator 21.0.0, SVG Export Plug-In . SVG Version: 6.00 Build 0)  -->
<svg version="1.1" id="Layer_1" xmlns="http://www.w3.org/2000/svg" xmlns:xlink="http://www.w3.org/1999/xlink" x="0px" y="0px"
	 viewBox="0 0 100 100" style="enable-background:new 0 0 100 100;" xml:space="preserve">
<style type="text/css">
	.st0{fill:#FFFFFF;}
	.st1{fill:#D3D3D3;}
	.st2{fill:#F8BC16;}
	.st3{fill:#4E5253;}
</style>
<g>
	<path class="st0" d="M85.9,46.1v1.6l-4.7,4.7v3.1L75,61.7h-1.6l1.6,1.6c0,0,1.6,1.6,1.6,3.1c0,2.6-2.1,4.7-4.7,4.7
		c-1.6,0-3.1-1.6-3.1-1.6l3.1,3.1c0,0,1.6,1.6,1.6,3.1c0,2.6-2.1,4.7-4.7,4.7c-1.6,0-3.1-1.6-3.1-1.6l-1.6-1.6c0,0,1.6,1.6,1.6,3.1
		c0,2.6-2.1,4.7-4.7,4.7c-1.6,0-3.1-1.6-3.1-1.6l-3.1-3.1c0,0,1.6,1.6,1.6,3.1c0,2.6-2.1,4.7-4.7,4.7c-1.6,0-3.1-1.6-3.1-1.6
		L20.3,58.6v-4.7l-6.2-6.2v-1.6l20.3-20.3h31.2L85.9,46.1z M21.9,61.7c0,0-1.6,1.6-1.6,3.1c0,2.6,2.1,4.7,4.7,4.7
		c1.6,0,3.1-1.6,3.1-1.6L21.9,61.7z M28.1,68c0,0-1.6,1.6-1.6,3.1c0,2.6,2.1,4.7,4.7,4.7c1.6,0,3.1-1.6,3.1-1.6L28.1,68z M34.4,74.2
		c0,0-1.6,1.6-1.6,3.1c0,2.6,2.1,4.7,4.7,4.7c1.6,0,3.1-1.6,3.1-1.6L34.4,74.2z M40.6,80.5c0,0-1.6,1.6-1.6,3.1
		c0,2.6,2.1,4.7,4.7,4.7c1.6,0,3.1-1.6,3.1-1.6L40.6,80.5z"/>
	<path class="st1" d="M29.7,11.7l9.4,9.4L10.9,49.2l-9.4-9.4L29.7,11.7z"/>
	<path class="st2" d="M98.4,39.8l-9.4,9.4L60.9,21.1l9.4-9.4L98.4,39.8z"/>
	<path class="st3" d="M99.5,38.7c-0.6-0.6-1.6-0.6-2.2,0L89.1,47L63.1,21.1l8.3-8.3c0.6-0.6,0.6-1.6,0-2.2c-0.6-0.6-1.6-0.6-2.2,0
		L58.7,21.1l3.1,3.1H45.3c0,0,0,0,0,0h-7.2l3.1-3.1L30.8,10.6c-0.6-0.6-1.6-0.6-2.2,0c-0.6,0.6-0.6,1.6,0,2.2l8.3,8.3L10.9,47
		l-8.3-8.3c-0.6-0.6-1.6-0.6-2.2,0c-0.6,0.6-0.6,1.6,0,2.2l10.5,10.5l2.3-2.3l5.5,5.5v4.7l1.7,1.7c-0.6,0.7-1.7,2.2-1.7,3.9
		c0,3.4,2.8,6.3,6.2,6.3c0,3.4,2.8,6.3,6.3,6.3c0,3.4,2.8,6.3,6.3,6.3c0,3.4,2.8,6.3,6.3,6.3c1.7,0,3.3-1.2,3.9-1.7
		c0.7,0.6,2.2,1.7,3.9,1.7c2.8,0,5.2-1.9,6-4.4c0.8,0.6,2,1.3,3.4,1.3c3,0,5.6-2.2,6.1-5c0.5,0.2,1.1,0.3,1.7,0.3
		c3.4,0,6.3-2.8,6.3-6.3c0-1.4-0.7-2.6-1.3-3.4c2.6-0.8,4.4-3.2,4.4-6c0-1.7-1.1-3.2-1.7-3.9l6.4-6.4V53l3.9-3.9l2.3,2.3l10.5-10.5
		C100.2,40.3,100.2,39.3,99.5,38.7z M21.9,64.8c0-0.5,0.4-1.2,0.8-1.7l4,4C26.2,67.6,25.5,68,25,68C23.3,68,21.9,66.6,21.9,64.8z
		 M28.1,71.1c0-0.5,0.4-1.2,0.8-1.7l4,4c-0.5,0.4-1.2,0.8-1.7,0.8C29.5,74.2,28.1,72.8,28.1,71.1z M34.4,77.3c0-0.5,0.4-1.2,0.8-1.7
		l4,4c-0.5,0.4-1.2,0.8-1.7,0.8C35.8,80.5,34.4,79.1,34.4,77.3z M40.6,83.6c0-0.5,0.4-1.2,0.8-1.7l4,4c-0.5,0.4-1.2,0.8-1.7,0.8
		C42,86.7,40.6,85.3,40.6,83.6z M71.9,69.5c-0.6,0-1.6-0.7-2-1.1L55.8,54.4c-0.6-0.6-1.6-0.6-2.2,0C53,55,53,56,53.6,56.6l17.2,17.2
		c0,0,0,0,0,0c0.4,0.5,1.1,1.4,1.1,2c0,1.7-1.4,3.1-3.1,3.1c-0.6,0-1.6-0.7-2-1.1L49.5,60.6c-0.6-0.6-1.6-0.6-2.2,0
		c-0.6,0.6-0.6,1.6,0,2.2L63,78.4c0,0,0,0,0,0c0.4,0.5,1.1,1.4,1.1,2c0,1.7-1.4,3.1-3.1,3.1c-0.6,0-1.6-0.7-2-1.1L43.3,66.9
		c-0.6-0.6-1.6-0.6-2.2,0c-0.6,0.6-0.6,1.6,0,2.2l12.5,12.5c0,0,0,0,0,0c0.4,0.5,1.1,1.4,1.1,2c0,1.7-1.4,3.1-3.1,3.1
		c-0.6,0-1.6-0.7-2-1.1L21.9,57.9v-4.7l-6.4-6.4L35,27.3h6.5l-6.7,6.7c-0.2,0.2-2,2.1-2,4.2c0,3.4,2.8,6.3,6.3,6.3
		c2.1,0,4-1.8,4.2-2l7.4-7.4h2.5v8.5l20.8,20.8c0,0,0,0,0,0c0.4,0.5,1.1,1.4,1.1,2C75,68.1,73.6,69.5,71.9,69.5z M79.7,51.7v3.1
		l-5.5,5.5L61.6,47.7h0.9c3.4,0,6.3-2.8,6.3-6.3h-3.1c0,1.7-1.4,3.1-3.1,3.1h-4l-2.2-2.2V32h-6.9l-8.3,8.3c-0.5,0.4-1.4,1.1-2,1.1
		c-1.7,0-3.1-1.4-3.1-3.1c0-0.6,0.7-1.6,1.1-2l8.9-8.9h19l19.5,19.5L79.7,51.7z M84.8,37.8c-0.6-0.6-0.6-1.6,0-2.2
		c0.6-0.6,1.6-0.6,2.2,0l3.1,3.1c0.6,0.6,0.6,1.6,0,2.2c-0.3,0.3-0.7,0.5-1.1,0.5c-0.4,0-0.8-0.2-1.1-0.5L84.8,37.8z M9.8,40.9
		c-0.6-0.6-0.6-1.6,0-2.2l3.1-3.1c0.6-0.6,1.6-0.6,2.2,0c0.6,0.6,0.6,1.6,0,2.2L12,40.9c-0.3,0.3-0.7,0.5-1.1,0.5
		C10.5,41.4,10.1,41.3,9.8,40.9z"/>
</g>
</svg>
