<?xml version="1.0" encoding="utf-8"?>
<!-- Generator: Adobe Illustrator 21.0.0, SVG Export Plug-In . SVG Version: 6.00 Build 0)  -->
<svg version="1.1" id="Layer_1" xmlns="http://www.w3.org/2000/svg" xmlns:xlink="http://www.w3.org/1999/xlink" x="0px" y="0px"
	 viewBox="0 0 120 120" style="enable-background:new 0 0 120 120;" xml:space="preserve">
<style type="text/css">
	.st0{fill:#FFFFFF;}
	.st1{fill:#D3D3D3;}
	.st2{fill:#F7BB16;}
	.st3{fill:#606565;}
</style>
<path class="st0" d="M35.6,1.9h63.8l15,15v86.3H35.6V1.9z"/>
<path class="st1" d="M86.3,90v28.1L75,108.8l-11.2,9.4V90H86.3z"/>
<path class="st0" d="M94.9,76.8c-0.5,1.7-1.1,3.2-1.9,4.7c0.5,0.9,0.8,1.8,0.8,2.9c0,3.1-2.5,5.6-5.6,5.6c-1.1,0-2.1-0.3-2.9-0.8
	c-1.5,0.8-3,1.5-4.7,1.9c-0.5,2.6-2.8,4.5-5.5,4.5c-2.7,0-5-1.9-5.5-4.5c-1.7-0.5-3.2-1.1-4.7-1.9c-0.9,0.5-1.8,0.8-2.9,0.8
	c-3.1,0-5.6-2.5-5.6-5.6c0-1.1,0.3-2.1,0.8-2.9c-0.8-1.5-1.5-3-1.9-4.7c-2.6-0.5-4.5-2.8-4.5-5.5c0-2.7,1.9-5,4.5-5.5
	c0.5-1.7,1.1-3.2,1.9-4.7c-0.5-0.9-0.8-1.8-0.8-2.9c0-3.1,2.5-5.6,5.6-5.6c1.1,0,2.1,0.3,2.9,0.8c1.5-0.8,3-1.5,4.7-1.9
	c0.5-2.6,2.8-4.5,5.5-4.5c2.7,0,5,1.9,5.5,4.5c1.7,0.5,3.2,1.1,4.7,1.9c0.9-0.5,1.8-0.8,2.9-0.8c3.1,0,5.6,2.5,5.6,5.6
	c0,1.1-0.3,2.1-0.8,2.9c0.8,1.5,1.5,3,1.9,4.7c2.6,0.5,4.5,2.8,4.5,5.5C99.4,74,97.4,76.2,94.9,76.8z M24.4,16.9V7.5
	c0-3.1-2.5-5.6-5.6-5.6c-3.1,0-5.6,2.5-5.6,5.6v9.4H24.4z M13.1,95.6v13.1l5.6,9.4l5.6-9.4V95.6H13.1z"/>
<path class="st2" d="M86.3,71.3c0,6.2-5,11.3-11.3,11.3c-6.2,0-11.2-5-11.2-11.3C63.8,65,68.8,60,75,60C81.2,60,86.3,65,86.3,71.3z
	 M24.4,16.9H13.1v78.8h11.2V16.9z"/>
<path class="st3" d="M115.7,15.5l-15-15C100.3,0.2,99.9,0,99.4,0H35.6c-1,0-1.9,0.8-1.9,1.9v101.3c0,1,0.8,1.9,1.9,1.9h22.5v-3.8
	H37.5V3.8h60v15h15v82.5H91.9v3.8h22.5c1,0,1.9-0.8,1.9-1.9V16.9C116.3,16.4,116.1,15.9,115.7,15.5z M101.3,6.4l8.6,8.6h-8.6V6.4z
	 M95.6,84.4c0-1-0.2-2-0.6-2.9c0.5-1,1-2.1,1.3-3.2c2.9-1.1,4.9-3.9,4.9-7s-2-6-4.9-7C96,63.1,95.6,62,95,61
	c0.4-0.9,0.6-1.9,0.6-2.9c0-4.1-3.4-7.5-7.5-7.5c-1,0-2,0.2-2.9,0.6c-1-0.5-2.1-1-3.2-1.3C81,47,78.2,45,75,45s-6,2-7,4.9
	c-1.1,0.4-2.2,0.8-3.2,1.3c-0.9-0.4-1.9-0.6-2.9-0.6c-4.1,0-7.5,3.4-7.5,7.5c0,1,0.2,2,0.6,2.9c-0.5,1-1,2.1-1.3,3.2
	c-2.9,1.1-4.9,3.9-4.9,7s2,6,4.9,7c0.4,1.1,0.8,2.2,1.3,3.2c-0.4,0.9-0.6,1.9-0.6,2.9c0,4.1,3.4,7.5,7.5,7.5v26.3
	c0,0.7,0.4,1.4,1.1,1.7c0.7,0.3,1.4,0.2,2-0.3l10-8.4l10,8.4c0.3,0.3,0.8,0.4,1.2,0.4c0.3,0,0.5-0.1,0.8-0.2c0.7-0.3,1.1-1,1.1-1.7
	V91.9C92.3,91.9,95.6,88.5,95.6,84.4z M76.2,107.3c-0.7-0.6-1.7-0.6-2.4,0l-8.2,6.8V91.7c0.8,0.3,1.5,0.7,2.3,0.9
	c1.1,2.9,3.9,4.9,7,4.9s6-2,7-4.9c0.8-0.3,1.6-0.6,2.3-0.9v22.5L76.2,107.3z M93,76.3c-0.4,1.5-1,2.9-1.8,4.3l-0.6,1l0.6,0.9
	c0.4,0.6,0.6,1.3,0.6,1.9c0,2.1-1.7,3.8-3.8,3.8c-0.7,0-1.3-0.2-1.9-0.6L85.2,87l-1,0.6c-1.3,0.8-2.8,1.4-4.3,1.8l-1.1,0.3l-0.2,1.1
	c-0.3,1.7-1.9,3-3.7,3s-3.3-1.3-3.7-3l-0.2-1.1L70,89.3c-1.5-0.4-2.9-1-4.3-1.8l-1-0.6l-0.9,0.6c-0.6,0.4-1.3,0.6-1.9,0.6
	c-2.1,0-3.8-1.7-3.8-3.8c0-0.7,0.2-1.3,0.6-1.9l0.6-0.9l-0.6-1c-0.8-1.3-1.4-2.8-1.8-4.3l-0.3-1.1l-1.1-0.2c-1.7-0.3-3-1.9-3-3.7
	s1.3-3.3,3-3.7l1.1-0.2l0.3-1.1c0.4-1.5,1-2.9,1.8-4.3l0.6-1l-0.6-0.9c-0.4-0.6-0.6-1.3-0.6-1.9c0-2.1,1.7-3.8,3.8-3.8
	c0.7,0,1.3,0.2,1.9,0.6l0.9,0.6l1-0.6c1.3-0.8,2.8-1.4,4.3-1.8l1.1-0.3l0.2-1.1c0.3-1.7,1.9-3,3.7-3s3.3,1.3,3.7,3l0.2,1.1l1.1,0.3
	c1.5,0.4,2.9,1,4.3,1.8l1,0.6l0.9-0.6c0.6-0.4,1.3-0.6,1.9-0.6c2.1,0,3.8,1.7,3.8,3.8c0,0.7-0.2,1.3-0.6,1.9L90.7,61l0.6,1
	c0.8,1.3,1.4,2.8,1.8,4.3l0.3,1.1l1.1,0.2c1.7,0.3,3,1.9,3,3.7s-1.3,3.3-3,3.7l-1.1,0.2L93,76.3z M75,58.1
	c-7.2,0-13.1,5.9-13.1,13.1S67.8,84.4,75,84.4c7.2,0,13.1-5.9,13.1-13.1S82.2,58.1,75,58.1z M75,80.6c-5.2,0-9.4-4.2-9.4-9.4
	s4.2-9.4,9.4-9.4s9.4,4.2,9.4,9.4S80.2,80.6,75,80.6z M18.8,0c-4.1,0-7.5,3.4-7.5,7.5v15H9.4c-3.1,0-5.6,2.5-5.6,5.6V60h3.8V28.1
	c0-1,0.8-1.9,1.9-1.9h1.9v82.5c0,0.3,0.1,0.7,0.3,1l5.6,9.4c0.3,0.6,0.9,0.9,1.6,0.9s1.3-0.3,1.6-0.9l5.6-9.4c0.2-0.3,0.3-0.6,0.3-1
	V7.5C26.3,3.4,22.9,0,18.8,0z M18.8,3.8c2.1,0,3.8,1.7,3.8,3.8V15H15V7.5C15,5.4,16.7,3.8,18.8,3.8z M22.5,18.8v75H15v-75H22.5z
	 M18.8,114.5l-3.8-6.2V97.5h7.5v10.7L18.8,114.5z M67.5,9.4v3.8H45V9.4H67.5z M45,22.5h60v3.8H45V22.5z M45,30h60v3.8H45V30z
	 M45,37.5h60v3.8H45V37.5z"/>
</svg>
