<?xml version="1.0" encoding="utf-8"?>
<!-- Generator: Adobe Illustrator 21.0.0, SVG Export Plug-In . SVG Version: 6.00 Build 0)  -->
<svg version="1.1" id="Layer_1" xmlns="http://www.w3.org/2000/svg" xmlns:xlink="http://www.w3.org/1999/xlink" x="0px" y="0px"
	 viewBox="0 0 120 120" style="enable-background:new 0 0 120 120;" xml:space="preserve">
<style type="text/css">
	.st0{fill:#F7BB16;}
	.st1{fill:#D3D3D3;}
	.st2{fill:#FFFFFF;}
	.st3{fill:#4D5152;}
</style>
<path class="st0" d="M7.7,38.7h104.5v63.9H7.7V38.7z"/>
<path class="st1" d="M77.4,102.6V60h23.2v42.6H77.4z"/>
<path class="st2" d="M118.1,17.4v25.2c0,3.2-2.6,5.8-5.8,5.8c-3.2,0-5.8-2.6-5.8-5.8c0,3.2-2.6,5.8-5.8,5.8c-3.2,0-5.8-2.6-5.8-5.8
	c0,3.2-2.6,5.8-5.8,5.8s-5.8-2.6-5.8-5.8c0,3.2-2.6,5.8-5.8,5.8s-5.8-2.6-5.8-5.8c0,3.2-2.6,5.8-5.8,5.8c-3.2,0-5.8-2.6-5.8-5.8
	c0,3.2-2.6,5.8-5.8,5.8c-3.2,0-5.8-2.6-5.8-5.8c0,3.2-2.6,5.8-5.8,5.8c-3.2,0-5.8-2.6-5.8-5.8c0,3.2-2.6,5.8-5.8,5.8
	c-3.2,0-5.8-2.6-5.8-5.8c0,3.2-2.6,5.8-5.8,5.8c-3.2,0-5.8-2.6-5.8-5.8c0,3.2-2.6,5.8-5.8,5.8s-5.8-2.6-5.8-5.8V17.4h11.6h11.6h11.6
	h11.6H60h11.6h11.6h11.6h11.6H118.1z M57.2,74.9c0,9-7.3,16.3-16.3,16.3s-16.3-7.3-16.3-16.3s7.3-16.3,16.3-16.3
	S57.2,65.9,57.2,74.9z"/>
<path class="st3" d="M108.4,15.5h-1.9h-9.7h-1.9h-9.7h-1.9h-9.7h-1.9h-9.7H60h-9.7h-1.9h-9.7h-1.9h-9.7h-1.9h-9.7h-1.9H0v27.1
	c0,3.6,2.5,6.6,5.8,7.5v54.4h108.4V50.1c3.3-0.9,5.8-3.9,5.8-7.5V15.5H108.4z M96.8,19.4h7.7v17.4h-7.7V19.4z M96.8,40.6h7.7v1.9
	c0,2.1-1.7,3.9-3.9,3.9c-2.1,0-3.9-1.7-3.9-3.9V40.6z M85.2,19.4h7.7v17.4h-7.7V19.4z M85.2,40.6h7.7v1.9c0,2.1-1.7,3.9-3.9,3.9
	c-2.1,0-3.9-1.7-3.9-3.9V40.6z M73.5,19.4h7.7v17.4h-7.7V19.4z M73.5,40.6h7.7v1.9c0,2.1-1.7,3.9-3.9,3.9s-3.9-1.7-3.9-3.9V40.6z
	 M61.9,19.4h7.7v17.4h-7.7V19.4z M61.9,40.6h7.7v1.9c0,2.1-1.7,3.9-3.9,3.9c-2.1,0-3.9-1.7-3.9-3.9V40.6z M50.3,19.4h7.7v17.4h-7.7
	V19.4z M50.3,40.6h7.7v1.9c0,2.1-1.7,3.9-3.9,3.9c-2.1,0-3.9-1.7-3.9-3.9V40.6z M38.7,19.4h7.7v17.4h-7.7V19.4z M38.7,40.6h7.7v1.9
	c0,2.1-1.7,3.9-3.9,3.9c-2.1,0-3.9-1.7-3.9-3.9V40.6z M27.1,19.4h7.7v17.4h-7.7V19.4z M27.1,40.6h7.7v1.9c0,2.1-1.7,3.9-3.9,3.9
	s-3.9-1.7-3.9-3.9V40.6z M15.5,19.4h7.7v17.4h-7.7V19.4z M15.5,40.6h7.7v1.9c0,2.1-1.7,3.9-3.9,3.9c-2.1,0-3.9-1.7-3.9-3.9V40.6z
	 M3.9,19.4h7.7v17.4H3.9V19.4z M3.9,42.6v-1.9h7.7v1.9c0,2.1-1.7,3.9-3.9,3.9S3.9,44.7,3.9,42.6z M98.7,100.6H79.4V61.9h19.4V100.6z
	 M110.3,100.6h-7.7V58.1H75.5v42.6H9.7V50.1c1.5-0.4,2.9-1.2,3.9-2.4c1.4,1.6,3.5,2.6,5.8,2.6c2.3,0,4.4-1,5.8-2.6
	c1.4,1.6,3.5,2.6,5.8,2.6s4.4-1,5.8-2.6c1.4,1.6,3.5,2.6,5.8,2.6s4.4-1,5.8-2.6c1.4,1.6,3.5,2.6,5.8,2.6c2.3,0,4.4-1,5.8-2.6
	c1.4,1.6,3.5,2.6,5.8,2.6c2.3,0,4.4-1,5.8-2.6c1.4,1.6,3.5,2.6,5.8,2.6s4.4-1,5.8-2.6c1.4,1.6,3.5,2.6,5.8,2.6c2.3,0,4.4-1,5.8-2.6
	c1.4,1.6,3.5,2.6,5.8,2.6s4.4-1,5.8-2.6c1,1.1,2.3,2,3.9,2.4V100.6z M116.1,42.6c0,2.1-1.7,3.9-3.9,3.9c-2.1,0-3.9-1.7-3.9-3.9v-1.9
	h7.7V42.6z M116.1,36.8h-7.7V19.4h7.7V36.8z M87.1,85.2h-3.9v-3.9h3.9V85.2z M57.8,68.1L42.9,83c-0.6,0.6-1.5,0.6-2.1,0L32,74.3
	c-0.7-0.7-0.9-1.8-0.3-2.6c0.7-1,2.2-1.1,3-0.3l7.1,7.1L55,65.3c0.7-0.7,1.8-0.9,2.6-0.3C58.6,65.8,58.7,67.2,57.8,68.1z"/>
</svg>
