<?xml version="1.0" encoding="utf-8"?>
<!-- Generator: Adobe Illustrator 21.0.0, SVG Export Plug-In . SVG Version: 6.00 Build 0)  -->
<svg version="1.1" id="Layer_1" xmlns="http://www.w3.org/2000/svg" xmlns:xlink="http://www.w3.org/1999/xlink" x="0px" y="0px"
	 viewBox="0 0 69 28.7" style="enable-background:new 0 0 69 28.7;" xml:space="preserve">
<style type="text/css">
	.st0{fill:#F7BB16;}
</style>
<g>
	<path class="st0" d="M11.5,5.2V7c3.1,0,5.4,0.8,6.9,2.3c1.5,1.5,2.3,3.4,2.3,5.7c0,2.2-0.8,4-2.3,5.6c-1.5,1.6-3.8,2.4-7,2.4v1.8
		h1.6c1,0,1.4,0.3,1.4,0.8c0,0.6-0.5,0.9-1.4,0.9H8.3c-1,0-1.5-0.3-1.5-0.8c0-0.5,0.5-0.8,1.5-0.8h1.6v-1.8c-3.1,0-5.4-0.8-6.9-2.3
		c-1.5-1.5-2.3-3.4-2.3-5.7s0.8-4.1,2.3-5.7C4.5,7.8,6.8,7,9.8,7V5.2H8.4c-1.1,0-1.7-0.3-1.7-0.9c0-0.5,0.6-0.8,1.9-0.8h4.5
		c1,0,1.5,0.3,1.5,0.8c0,0.6-0.5,0.8-1.5,0.8H11.5z M9.8,8.6c-2,0.1-3.5,0.5-4.6,1.1c-1,0.6-1.8,1.4-2.3,2.3C2.5,13,2.2,13.9,2.2,15
		c0,1.7,0.6,3.1,1.8,4.3c1.2,1.2,3.1,1.9,5.8,2V8.6z M11.5,21.3c2.7-0.1,4.6-0.8,5.8-2c1.2-1.2,1.8-2.7,1.8-4.3
		c0-1.6-0.6-3.1-1.8-4.3c-1.2-1.2-3.1-1.9-5.8-2V21.3z"/>
	<path class="st0" d="M40.2,15.3H29.3v9.4h2.2c0.4,0,0.7,0.1,0.8,0.2c0.2,0.1,0.3,0.3,0.3,0.6c0,0.2-0.1,0.4-0.3,0.6
		c-0.2,0.2-0.4,0.2-0.8,0.2h-5.7c-0.4,0-0.7-0.1-0.8-0.2c-0.2-0.2-0.3-0.4-0.3-0.6c0-0.2,0.1-0.4,0.3-0.6c0.2-0.1,0.4-0.2,0.8-0.2
		h1.9V5.2h-1c-0.4,0-0.7-0.1-0.9-0.2c-0.2-0.1-0.3-0.3-0.3-0.6c0-0.2,0.1-0.4,0.3-0.6c0.2-0.1,0.5-0.2,0.9-0.2h4.9
		c0.4,0,0.7,0.1,0.8,0.2c0.2,0.1,0.3,0.3,0.3,0.6c0,0.2-0.1,0.4-0.3,0.6c-0.2,0.1-0.4,0.2-0.8,0.2h-2.2v8.5h10.9V5.2H38
		c-0.4,0-0.7-0.1-0.8-0.2c-0.2-0.1-0.3-0.3-0.3-0.6c0-0.2,0.1-0.4,0.2-0.6c0.2-0.1,0.4-0.2,0.8-0.2h4.9c0.4,0,0.7,0.1,0.9,0.2
		C43.9,3.9,44,4.1,44,4.4c0,0.2-0.1,0.4-0.3,0.6c-0.2,0.1-0.5,0.2-0.9,0.2h-1v19.6h1.9c0.4,0,0.7,0.1,0.8,0.2
		c0.2,0.1,0.3,0.3,0.3,0.6c0,0.2-0.1,0.4-0.3,0.6c-0.2,0.2-0.4,0.2-0.8,0.2H38c-0.4,0-0.7-0.1-0.8-0.2c-0.2-0.2-0.3-0.4-0.3-0.6
		c0-0.2,0.1-0.4,0.2-0.6c0.2-0.1,0.4-0.2,0.8-0.2h2.2V15.3z"/>
	<path class="st0" d="M65.8,5.8V4.6c0-0.4,0.1-0.7,0.2-0.8c0.1-0.2,0.3-0.3,0.6-0.3c0.2,0,0.4,0.1,0.6,0.3c0.1,0.2,0.2,0.4,0.2,0.8
		v4.5c0,0.4-0.1,0.7-0.2,0.9c-0.1,0.2-0.3,0.3-0.6,0.3c-0.2,0-0.4-0.1-0.6-0.2c-0.1-0.2-0.2-0.4-0.3-0.8c-0.1-1.1-0.7-2.1-1.8-2.9
		c-1.5-1.2-3.2-1.7-5.2-1.7c-1.3,0-2.5,0.3-3.6,0.8c-0.8,0.4-1.5,0.9-2,1.5c-0.9,1-1.5,2.1-2,3.4c-0.4,0.9-0.5,1.9-0.5,3.1v2.9
		c0,2.4,0.9,4.6,2.7,6.4c1.8,1.8,3.8,2.7,6.2,2.7c1.4,0,2.7-0.3,3.8-0.9c1.1-0.6,2.2-1.5,3.2-2.8c0.2-0.3,0.5-0.4,0.7-0.4
		c0.2,0,0.4,0.1,0.6,0.2c0.1,0.1,0.2,0.3,0.2,0.5c0,0.3-0.3,0.8-0.8,1.4c-1.1,1.2-2.3,2.1-3.6,2.7c-1.3,0.6-2.7,0.9-4,0.9
		c-1.2,0-2.4-0.2-3.6-0.7c-0.9-0.4-1.7-0.8-2.3-1.2c-0.6-0.5-1.4-1.3-2.3-2.4c-0.9-1.1-1.5-2.1-1.8-3.1c-0.3-0.9-0.5-2-0.5-3.1v-3.3
		c0-1.6,0.4-3.3,1.3-4.9c0.9-1.7,2-3,3.6-3.9C55.5,3.5,57.1,3,58.8,3C61.6,3,63.9,3.9,65.8,5.8z"/>
</g>
</svg>
