<?xml version="1.0" encoding="utf-8"?>
<!-- Generator: Adobe Illustrator 21.0.0, SVG Export Plug-In . SVG Version: 6.00 Build 0)  -->
<svg version="1.1" id="Layer_1" xmlns="http://www.w3.org/2000/svg" xmlns:xlink="http://www.w3.org/1999/xlink" x="0px" y="0px"
	 viewBox="0 0 120 120" style="enable-background:new 0 0 120 120;" xml:space="preserve">
<style type="text/css">
	.st0{fill:#D3D3D3;}
	.st1{fill:#F7BB16;}
	.st2{fill:#606565;}
	.st3{fill:#FFFFFF;}
</style>
<path class="st0" d="M33.8,84.4H5.6c-1.9,0-3.7-2.5-3.7-5.6c0-3.1,0-3.8,0-3.8L15,67.5h11.3L39.4,75l0,0l15-7.5h11.3l15,7.5l0,0
	l13.1-7.5H105l13.1,7.5c0,0,0,0.6,0,3.8c0,3.1-1.9,5.6-3.8,5.6H86.3H33.8z"/>
<path class="st1" d="M41.3,33.8c0-3.1,0-3.8,0-3.8l13.1-7.5h11.3L78.8,30c0,0,0,0.6,0,3.8c0,3.1-1.9,5.6-3.8,5.6H45
	C43.1,39.4,41.3,36.9,41.3,33.8z M105,101.2H93.8l-13.1,7.5l-15-7.5H54.4l-15,7.5l-13.1-7.5H15l-13.1,7.5c0,0,0,0.6,0,3.8
	c0,3.1,1.9,5.6,3.8,5.6h28.1h52.5h28.1c1.9,0,3.8-2.5,3.8-5.6c0-3.1,0-3.8,0-3.8L105,101.2z"/>
<path class="st2" d="M12.6,20.1l-2.7-2.7L19.3,8C20,7.3,21.2,7.3,22,8l9.4,9.4l-2.7,2.7l-6.2-6.2v23.6h-3.8V13.9L12.6,20.1z
	 M97.5,13.9v23.6h3.8V13.9l6.2,6.2l2.7-2.7L100.7,8C100,7.3,98.8,7.3,98,8l-9.4,9.4l2.7,2.7L97.5,13.9z M99.4,82.5H20.6v3.8h78.8
	V82.5z M105.5,65.6H93.3l-12.7,7.2l-14.5-7.2H53.9l-14.5,7.2l-12.7-7.2H14.5L0,73.9v4.8c0,4.1,2.6,7.5,5.6,7.5h5.6v-3.8H5.6
	c-0.6,0-1.9-1.5-1.9-3.8v-2.7l11.7-6.7h10.3l11.7,6.7v4.5h3.8v-4.5l13.6-6.8h10.4l13.6,6.8v4.5h3.8v-4.5l11.7-6.7h10.3l11.7,6.7v2.7
	c0,2.3-1.3,3.8-1.9,3.8h-5.6v3.8h5.6c3,0,5.6-3.4,5.6-7.5v-4.8L105.5,65.6z M105.5,99.4l14.5,8.3v4.8c0,4.1-2.6,7.5-5.6,7.5H5.6
	c-3,0-5.6-3.4-5.6-7.5v-4.8l14.5-8.3h12.2l12.7,7.2l14.5-7.2h12.1l14.5,7.2l12.7-7.2H105.5z M116.3,109.8l-11.7-6.7H94.2l-11.7,6.7
	v4.5h-3.8v-4.5l-13.6-6.8H54.8l-13.6,6.8v4.5h-3.8v-4.5l-11.7-6.7H15.5l-11.7,6.7v2.7c0,2.3,1.3,3.8,1.9,3.8h108.8
	c0.6,0,1.9-1.5,1.9-3.8V109.8z"/>
<path class="st3" d="M30,57.2c0,6.6-3.7,12.2-9.4,12.2s-9.4-5.6-9.4-12.2s1.9-10.3,9.4-10.3S30,50.6,30,57.2z M60,46.9
	c-7.5,0-9.4,3.8-9.4,10.3s3.7,12.2,9.4,12.2s9.4-5.6,9.4-12.2S67.5,46.9,60,46.9z M99.4,69.4c5.7,0,9.4-5.6,9.4-12.2
	s-1.9-10.3-9.4-10.3S90,50.6,90,57.2S93.7,69.4,99.4,69.4z M60,1.9c-7.5,0-9.4,3.8-9.4,10.3s3.7,12.2,9.4,12.2s9.4-5.6,9.4-12.2
	S67.5,1.9,60,1.9z M20.6,80.6c-7.5,0-9.4,3.8-9.4,10.3c0,6.6,3.7,12.2,9.4,12.2S30,97.5,30,90.9C30,84.4,28.1,80.6,20.6,80.6z
	 M60,80.6c-7.5,0-9.4,3.8-9.4,10.3c0,6.6,3.7,12.2,9.4,12.2s9.4-5.6,9.4-12.2C69.4,84.4,67.5,80.6,60,80.6z M99.4,80.6
	c-7.5,0-9.4,3.8-9.4,10.3c0,6.6,3.7,12.2,9.4,12.2s9.4-5.6,9.4-12.2C108.8,84.4,106.9,80.6,99.4,80.6z"/>
<path class="st2" d="M20.6,45c-10,0-11.3,6.5-11.3,12.2c0,8,4.8,14.1,11.3,14.1c6.4,0,11.3-6,11.3-14.1C31.9,51.5,30.6,45,20.6,45z
	 M20.6,67.5c-4.9,0-7.5-5.3-7.5-10.3c0-6.4,1.8-8.4,7.5-8.4c5.7,0,7.5,2.1,7.5,8.4C28.1,62.2,25.5,67.5,20.6,67.5z M60,45
	c-10,0-11.3,6.5-11.3,12.2c0,8,4.8,14.1,11.3,14.1c6.4,0,11.3-6,11.3-14.1C71.3,51.5,70,45,60,45z M60,67.5c-4.9,0-7.5-5.3-7.5-10.3
	c0-6.4,1.8-8.4,7.5-8.4c5.7,0,7.5,2.1,7.5,8.4C67.5,62.2,64.9,67.5,60,67.5z M99.4,71.3c6.4,0,11.3-6,11.3-14.1
	c0-5.7-1.3-12.2-11.3-12.2c-10,0-11.3,6.5-11.3,12.2C88.1,65.2,93,71.3,99.4,71.3z M99.4,48.8c5.7,0,7.5,2.1,7.5,8.4
	c0,5-2.6,10.3-7.5,10.3c-4.9,0-7.5-5.3-7.5-10.3C91.9,50.8,93.7,48.8,99.4,48.8z M71.3,12.2C71.3,6.5,70,0,60,0
	C50,0,48.8,6.5,48.8,12.2c0,3.8,1.1,7.2,3,9.7l-12.3,7v4.8c0,4.1,2.6,7.5,5.6,7.5h30c3,0,5.6-3.4,5.6-7.5v-4.8l-12.3-7
	C70.1,19.4,71.3,16,71.3,12.2z M60,3.8c5.7,0,7.5,2.1,7.5,8.4c0,5-2.6,10.3-7.5,10.3c-4.9,0-7.5-5.3-7.5-10.3
	C52.5,5.8,54.3,3.8,60,3.8z M76.9,31.1v2.7c0,2.3-1.3,3.8-1.9,3.8H45c-0.6,0-1.9-1.5-1.9-3.8v-2.7l11.4-6.5c1.6,1.1,3.5,1.7,5.5,1.7
	c2,0,3.9-0.6,5.5-1.7L76.9,31.1z M20.6,78.8c-10,0-11.3,6.5-11.3,12.2c0,8,4.8,14.1,11.3,14.1c6.4,0,11.3-6,11.3-14.1
	C31.9,85.3,30.6,78.8,20.6,78.8z M20.6,101.2c-4.9,0-7.5-5.3-7.5-10.3c0-6.4,1.8-8.4,7.5-8.4c5.7,0,7.5,2.1,7.5,8.4
	C28.1,95.9,25.5,101.2,20.6,101.2z M60,78.8c-10,0-11.3,6.5-11.3,12.2c0,8,4.8,14.1,11.3,14.1c6.4,0,11.3-6,11.3-14.1
	C71.3,85.3,70,78.8,60,78.8z M60,101.2c-4.9,0-7.5-5.3-7.5-10.3c0-6.4,1.8-8.4,7.5-8.4c5.7,0,7.5,2.1,7.5,8.4
	C67.5,95.9,64.9,101.2,60,101.2z M99.4,78.8c-10,0-11.3,6.5-11.3,12.2c0,8,4.8,14.1,11.3,14.1c6.4,0,11.3-6,11.3-14.1
	C110.6,85.3,109.3,78.8,99.4,78.8z M99.4,101.2c-4.9,0-7.5-5.3-7.5-10.3c0-6.4,1.8-8.4,7.5-8.4c5.7,0,7.5,2.1,7.5,8.4
	C106.9,95.9,104.2,101.2,99.4,101.2z"/>
</svg>
