<?xml version="1.0" encoding="utf-8"?>
<!-- Generator: Adobe Illustrator 21.0.0, SVG Export Plug-In . SVG Version: 6.00 Build 0)  -->
<svg version="1.1" id="Layer_1" xmlns="http://www.w3.org/2000/svg" xmlns:xlink="http://www.w3.org/1999/xlink" x="0px" y="0px"
	 viewBox="0 0 40 40" style="enable-background:new 0 0 40 40;" xml:space="preserve">
<style type="text/css">
	.st0{fill:#F7BB16;}
</style>
<path class="st0" d="M13.5,8.9c1.2,1.5,2.4,3,3.5,4.6c0,0,0,0,0.1,0.1c0.2,0.2,0.3,0.5,0.4,0.7c0.1,0.3,0.1,0.6,0.1,0.9
	c0,0.3-0.2,0.6-0.3,0.9c0,0,0,0,0,0.1c-0.1,0.2-0.3,0.4-0.6,0.6c0,0,0,0,0,0c-0.6,0.4-1.2,0.8-1.7,1.3c-0.1,0.2-0.2,0.8,0.2,1.5
	c0.8,1.1,1.6,2.1,2.5,3h0c0.9,0.9,1.9,1.8,3,2.5c0.7,0.5,1.2,0.4,1.5,0.2c0.4-0.6,0.9-1.2,1.3-1.8l0,0c0.2-0.3,0.4-0.5,0.7-0.6
	c0.3-0.2,0.5-0.3,0.9-0.3c0,0,0,0,0,0c0.3,0,0.6,0,0.9,0.1c0,0,0,0,0,0c0.3,0.1,0.5,0.2,0.8,0.4c1.5,1.2,3,2.4,4.6,3.5
	c0,0,0,0,0.1,0.1c0.2,0.2,0.4,0.4,0.5,0.7c0.1,0.3,0.2,0.6,0.2,0.9c0,0.3,0,0.7-0.2,0.9c-0.1,0.3-0.3,0.6-0.6,0.8
	c-0.3,0.3-0.7,0.6-1.1,0.8c0,0,0,0-0.1,0c-0.4,0.3-0.9,0.5-1.5,0.7c-2.5,0.8-5.2,0.7-7.7-0.2c-2.7-0.9-5.3-2.6-7.5-4.7
	c-2.1-2.1-3.8-4.8-4.7-7.5c-0.9-2.6-1-5.2-0.2-7.7c0.2-0.6,0.4-1.1,0.7-1.5c0,0,0,0,0,0l0,0C9.5,9.4,9.8,9,10.1,8.7
	c0.2-0.3,0.5-0.4,0.8-0.5c0,0,0.1,0,0.1,0C11.2,8,11.5,8,11.8,8C12.6,8,12.9,8.3,13.5,8.9L13.5,8.9z M15.6,14.5L15.6,14.5
	c-1.2-1.5-2.4-3-3.5-4.6v0c0,0-0.1-0.1-0.1-0.1c0,0,0,0,0,0c-0.1,0-0.1,0-0.2,0c-0.1,0-0.1,0-0.2,0c0,0,0,0,0,0
	c-0.1,0-0.1,0.1-0.1,0.1c-0.2,0.2-0.4,0.5-0.6,0.8l0,0c-0.2,0.3-0.4,0.7-0.5,1.2c-0.7,2.1-0.6,4.4,0.2,6.6c0.8,2.4,2.4,4.8,4.3,6.7
	c2,2,4.3,3.5,6.7,4.3c2.2,0.7,4.5,0.9,6.6,0.2c0.4-0.1,0.8-0.3,1.1-0.5c0,0,0,0,0,0c0.3-0.2,0.6-0.4,0.8-0.6c0,0,0.1-0.1,0.1-0.1
	c0,0,0,0,0,0c0,0,0-0.1,0-0.2c0-0.1,0-0.1,0-0.2c0,0,0,0,0,0c0,0,0-0.1-0.1-0.1c0,0,0,0,0,0c-1.5-1.2-3-2.4-4.6-3.5h0h0
	c0,0-0.1,0-0.1-0.1c0,0,0,0,0,0c0,0-0.1,0-0.2,0l0,0c-0.1,0-0.1,0-0.2,0.1l0,0c0,0-0.1,0.1-0.1,0.1l0,0c-0.5,0.6-0.9,1.3-1.4,1.9
	c-0.1,0.1-0.2,0.2-0.3,0.3c0,0-1.6,1.2-3.6-0.2c-1.2-0.8-2.3-1.8-3.3-2.7l0,0c-1-1-1.9-2.1-2.7-3.3c-1.4-2-0.2-3.6-0.2-3.6
	c0.1-0.1,0.1-0.2,0.3-0.3c0.6-0.5,1.3-0.9,1.9-1.4c0,0,0,0,0.1-0.1c0,0,0.1-0.1,0.1-0.1c0,0,0,0,0,0c0,0,0-0.1,0.1-0.2
	c0-0.1,0-0.1,0-0.2C15.6,14.7,15.6,14.6,15.6,14.5C15.6,14.6,15.6,14.6,15.6,14.5L15.6,14.5z M20,0C9,0,0,9,0,20c0,11,9,20,20,20
	s20-9,20-20C40,9,31,0,20,0z M20,38c-9.9,0-18-8.1-18-18S10.1,2,20,2s18,8.1,18,18S29.9,38,20,38z"/>
</svg>
