<?xml version="1.0" encoding="utf-8"?>
<!-- Generator: Adobe Illustrator 21.0.0, SVG Export Plug-In . SVG Version: 6.00 Build 0)  -->
<svg version="1.1" id="Layer_1" xmlns="http://www.w3.org/2000/svg" xmlns:xlink="http://www.w3.org/1999/xlink" x="0px" y="0px"
	 viewBox="0 0 100 100" style="enable-background:new 0 0 100 100;" xml:space="preserve">
<style type="text/css">
	.st0{fill:#F7BB16;}
	.st1{fill:#D3D3D3;}
	.st2{fill:#FFFFFF;}
	.st3{fill:#4D5152;}
	.st4{fill:none;stroke:#4D5152;stroke-width:2;stroke-miterlimit:10;}
</style>
<g>
	<path class="st0" d="M6.5,32.3h87.1v53.2H6.5V32.3z"/>
	<path class="st1" d="M64.5,85.5V50h19.4v35.5H64.5z"/>
	<g>
		<path class="st2" d="M11.3,35.5c0,2.7-2.2,4.8-4.8,4.8c-2.7,0-4.8-2.2-4.8-4.8v-21h9.7V35.5z"/>
	</g>
	<g>
		<path class="st2" d="M11.3,14.5H21v21c0,2.7-2.2,4.8-4.8,4.8c-2.7,0-4.8-2.2-4.8-4.8V14.5z"/>
	</g>
	<g>
		<path class="st2" d="M21,14.5h9.7v21c0,2.7-2.2,4.8-4.8,4.8c-2.7,0-4.8-2.2-4.8-4.8V14.5z"/>
	</g>
	<g>
		<path class="st2" d="M30.6,14.5h9.7v21c0,2.7-2.2,4.8-4.8,4.8c-2.7,0-4.8-2.2-4.8-4.8V14.5z"/>
	</g>
	<g>
		<path class="st2" d="M40.3,14.5H50v21c0,2.7-2.2,4.8-4.8,4.8c-2.7,0-4.8-2.2-4.8-4.8V14.5z"/>
	</g>
	<g>
		<path class="st2" d="M50,14.5h9.7v21c0,2.7-2.2,4.8-4.8,4.8c-2.7,0-4.8-2.2-4.8-4.8V14.5z"/>
	</g>
	<g>
		<path class="st2" d="M59.7,14.5h9.7v21c0,2.7-2.2,4.8-4.8,4.8c-2.7,0-4.8-2.2-4.8-4.8V14.5z"/>
	</g>
	<g>
		<path class="st2" d="M69.4,14.5H79v21c0,2.7-2.2,4.8-4.8,4.8c-2.7,0-4.8-2.2-4.8-4.8V14.5z"/>
	</g>
	<g>
		<path class="st2" d="M79,14.5h9.7v21c0,2.7-2.2,4.8-4.8,4.8c-2.7,0-4.8-2.2-4.8-4.8V14.5z"/>
	</g>
	<g>
		<path class="st2" d="M88.7,14.5h9.7v21c0,2.7-2.2,4.8-4.8,4.8c-2.7,0-4.8-2.2-4.8-4.8V14.5z"/>
	</g>
	<path class="st2" d="M51.6,72.6H19.4V50h32.3V72.6z"/>
	<path class="st3" d="M90.3,12.9h-1.6h-8.1H79H71h-1.6h-8.1h-1.6h-8.1H50h-8.1h-1.6h-8.1h-1.6h-8.1H21h-8.1h-1.6H0v22.6
		c0,3,2.1,5.5,4.8,6.2v45.4h90.3V41.7c2.8-0.7,4.8-3.2,4.8-6.2V12.9H90.3z M96.8,16.1v14.5h-6.5V16.1H96.8z M87.1,16.1v14.5h-6.5
		V16.1H87.1z M12.9,33.9h6.5v1.6c0,1.8-1.4,3.2-3.2,3.2c-1.8,0-3.2-1.4-3.2-3.2V33.9z M22.6,33.9H29v1.6c0,1.8-1.4,3.2-3.2,3.2
		c-1.8,0-3.2-1.4-3.2-3.2V33.9z M32.3,33.9h6.5v1.6c0,1.8-1.4,3.2-3.2,3.2c-1.8,0-3.2-1.4-3.2-3.2V33.9z M41.9,33.9h6.5v1.6
		c0,1.8-1.4,3.2-3.2,3.2c-1.8,0-3.2-1.4-3.2-3.2V33.9z M51.6,33.9h6.5v1.6c0,1.8-1.4,3.2-3.2,3.2s-3.2-1.4-3.2-3.2V33.9z M61.3,33.9
		h6.5v1.6c0,1.8-1.4,3.2-3.2,3.2s-3.2-1.4-3.2-3.2V33.9z M71,33.9h6.5v1.6c0,1.8-1.4,3.2-3.2,3.2c-1.8,0-3.2-1.4-3.2-3.2V33.9z
		 M80.6,33.9h6.5v1.6c0,1.8-1.4,3.2-3.2,3.2c-1.8,0-3.2-1.4-3.2-3.2V33.9z M77.4,16.1v14.5H71V16.1H77.4z M67.7,16.1v14.5h-6.5V16.1
		H67.7z M58.1,16.1v14.5h-6.5V16.1H58.1z M48.4,16.1v14.5h-6.5V16.1H48.4z M38.7,16.1v14.5h-6.5V16.1H38.7z M29,16.1v14.5h-6.5V16.1
		H29z M19.4,16.1v14.5h-6.5V16.1H19.4z M9.7,16.1v14.5H3.2V16.1H9.7z M3.2,35.5v-1.6h6.5v1.6c0,1.8-1.4,3.2-3.2,3.2
		S3.2,37.3,3.2,35.5z M82.3,83.9H66.1V51.6h16.1V83.9z M85.5,83.9V48.4H62.9v35.5H8.1V41.7c1.3-0.3,2.4-1,3.2-2
		c1.2,1.3,2.9,2.2,4.8,2.2c1.9,0,3.7-0.9,4.8-2.2c1.2,1.3,2.9,2.2,4.8,2.2s3.7-0.9,4.8-2.2c1.2,1.3,2.9,2.2,4.8,2.2s3.7-0.9,4.8-2.2
		c1.2,1.3,2.9,2.2,4.8,2.2c1.9,0,3.7-0.9,4.8-2.2c1.2,1.3,2.9,2.2,4.8,2.2s3.7-0.9,4.8-2.2c1.2,1.3,2.9,2.2,4.8,2.2s3.7-0.9,4.8-2.2
		c1.2,1.3,2.9,2.2,4.8,2.2c1.9,0,3.7-0.9,4.8-2.2c1.2,1.3,2.9,2.2,4.8,2.2s3.7-0.9,4.8-2.2c0.8,1,2,1.7,3.2,2v42.1H85.5z M93.5,38.7
		c-1.8,0-3.2-1.4-3.2-3.2v-1.6h6.5v1.6C96.8,37.3,95.3,38.7,93.5,38.7z M72.6,71h-3.2v-3.2h3.2V71z M17.7,74.2h35.5V48.4H17.7V74.2z
		 M50,71H37.1V51.6H50V71z M21,51.6h12.9V71H21V51.6z"/>
	<g>
		<g>
			<g>
				<path class="st4" d="M41.4,79.6"/>
			</g>
		</g>
	</g>
</g>
</svg>
