<?xml version="1.0" encoding="utf-8"?>
<!-- Generator: Adobe Illustrator 21.0.0, SVG Export Plug-In . SVG Version: 6.00 Build 0)  -->
<svg version="1.1" id="Layer_1" xmlns="http://www.w3.org/2000/svg" xmlns:xlink="http://www.w3.org/1999/xlink" x="0px" y="0px"
	 viewBox="0 0 120 120" style="enable-background:new 0 0 120 120;" xml:space="preserve">
<style type="text/css">
	.st0{fill:#FFFFFF;}
	.st1{fill:#F7BB16;}
	.st2{fill:#D3D3D3;}
	.st3{fill:#4D5152;}
</style>
<path class="st0" d="M68.4,77.3c-0.5-0.4-1.1-0.7-1.6-0.9L44,54.2c1.4,3.9,0.5,8.5-2.7,11.7L30.2,77L14.3,61.1L25.5,50L4.8,29.3
	L19.1,15h47.7l4.8,4.8L41.4,50c0.8,0.8,1.4,1.6,1.9,2.5l33.2-33.2C89,6.8,113.9,6.8,113.9,6.8s0,25-12.5,37.5L68.4,77.3z M70,78.6
	c-0.5-0.5-1-0.9-1.6-1.3l-0.3,0.3l-1.3-1.3c-4.2-1.9-9.2-1.2-12.7,2.2L43,89.8l15.9,15.9L70,94.5l20.7,20.7l14.3-14.3V53.2l-4.8-4.8
	L70,78.6z"/>
<path class="st1" d="M74.8,16.6L41.6,49.8l4,6.8l-4.3,9.3l12.7,12.7l7.4-3.7l8.3,4l33.7-33.7c14.3-14.3,14.3-43,14.3-43
	S89.1,2.3,74.8,16.6z M70,59.5c-2.6,2.6-6.9,2.6-9.5,0c-2.6-2.6-2.6-6.9,0-9.5c2.6-2.6,6.9-2.6,9.5,0S72.6,56.9,70,59.5z M85.9,43.6
	c-2.6,2.6-6.9,2.6-9.5,0c-2.6-2.6-2.6-6.9,0-9.5c2.6-2.6,6.9-2.6,9.5,0C88.6,36.7,88.6,41,85.9,43.6z M101.8,27.7
	c-2.6,2.6-6.9,2.6-9.5,0c-2.6-2.6-2.6-6.9,0-9.5c2.6-2.6,6.9-2.6,9.5,0C104.5,20.8,104.5,25.1,101.8,27.7z"/>
<path class="st2" d="M22.3,21.3h38.2L41.4,40.4H25.5L14.3,29.3L22.3,21.3z M79.6,78.6v15.9l11.1,11.1l8-8V59.5L79.6,78.6z"/>
<path class="st3" d="M87.5,45.2c3.5-3.5,3.5-9.2,0-12.7c-3.5-3.5-9.2-3.5-12.7,0c-3.5,3.5-3.5,9.2,0,12.7
	C78.3,48.7,84,48.7,87.5,45.2z M78,35.7c1.8-1.8,4.6-1.8,6.4,0c1.8,1.8,1.8,4.6,0,6.4c-1.8,1.8-4.6,1.8-6.4,0
	C76.2,40.3,76.2,37.4,78,35.7z M103.4,29.3c3.5-3.5,3.5-9.2,0-12.7c-3.5-3.5-9.2-3.5-12.7,0c-3.5,3.5-3.5,9.2,0,12.7
	C94.2,32.8,99.9,32.8,103.4,29.3z M93.9,19.8c1.8-1.8,4.6-1.8,6.4,0c1.8,1.8,1.8,4.6,0,6.4c-1.8,1.8-4.6,1.8-6.4,0
	C92.1,24.4,92.1,21.5,93.9,19.8z M71.6,61.1c3.5-3.5,3.5-9.2,0-12.7c-3.5-3.5-9.2-3.5-12.7,0c-3.5,3.5-3.5,9.2,0,12.7
	C62.4,64.6,68.1,64.6,71.6,61.1z M62.1,51.6c1.8-1.8,4.6-1.8,6.4,0c1.8,1.8,1.8,4.6,0,6.4c-1.8,1.8-4.6,1.8-6.4,0
	C60.3,56.2,60.3,53.3,62.1,51.6z M15.9,72.3L3.2,85L0,81.8l12.7-12.7L15.9,72.3z M19.1,75.4l3.2,3.2L9.5,91.4l-3.2-3.2L19.1,75.4z
	 M44.6,100.9l-12.7,12.7l-3.2-3.2l12.7-12.7L44.6,100.9z M47.7,104.1l3.2,3.2L38.2,120l-3.2-3.2L47.7,104.1z M25.5,62.7l3.2,3.2
	l-3.2,3.2l-3.2-3.2L25.5,62.7z M108.2,15l-3.2-3.2l3.2-3.2l3.2,3.2L108.2,15z M54.1,69.1l-3.2-3.2l3.2-3.2l3.2,3.2L54.1,69.1z
	 M120,2.3l0-2.3l-2.3,0C116.5,0,88,0.2,73.2,15l-1.6,1.6l-3.8-3.8H18.2L1.6,29.3L22.3,50L11.1,61.1l19.1,19.1l11.1-11.1l9.5,9.5
	L39.8,89.8l19.1,19.1L70,97.7l20.7,20.7l16.6-16.6V52.2l-3.8-3.8l1.6-1.6C119.8,32,120,3.5,120,2.3z M76.4,18.2
	C87.6,7,108.4,5,115.4,4.6c-0.4,7-2.4,27.8-13.6,39l-32,32c-4.7-3.3-11-3.3-15.6,0l-9.8-9.8c3.3-4.7,3.3-11,0-15.6L76.4,18.2z
	 M20,17.2h45.9l2.5,2.5L41.2,46.9c-4.7-3.3-11-3.3-15.6,0L8,29.3L20,17.2z M17.5,61.1l9.5-9.5c3.5-3.5,9.2-3.5,12.7,0
	c3.5,3.5,3.5,9.2,0,12.7l-9.5,9.5L17.5,61.1z M54.1,97.7l3.2-3.2l-3.2-3.2l-3.2,3.2l1.6,1.6l-6.4-6.4l9.5-9.5
	c3.5-3.5,9.2-3.5,12.7,0c3.5,3.5,3.5,9.2,0,12.7l-9.5,9.5L54.1,97.7z M102.8,54.1V100L90.7,112L73.1,94.4c3.3-4.7,3.3-11,0-15.6
	l27.2-27.2L102.8,54.1z"/>
</svg>
