<?xml version="1.0" encoding="utf-8"?>
<!-- Generator: Adobe Illustrator 21.0.0, SVG Export Plug-In . SVG Version: 6.00 Build 0)  -->
<svg version="1.1" id="Layer_1" xmlns="http://www.w3.org/2000/svg" xmlns:xlink="http://www.w3.org/1999/xlink" x="0px" y="0px"
	 viewBox="0 0 120 120" style="enable-background:new 0 0 120 120;" xml:space="preserve">
<style type="text/css">
	.st0{fill:#FFFFFF;}
	.st1{fill:#F7BB16;}
	.st2{fill:#D3D3D3;}
	.st3{fill:#4D5152;}
</style>
<path class="st0" d="M118.1,87.3L1.9,87.5l17.4-31.4h81.3L118.1,87.3z M96.8,13.5H77.4v7.7h19.4V13.5z M50.3,18.2l-3.9-3.9l-3.9,3.9
	l-3.9-3.9l-3.9,3.9L31,14.3l-3.9,3.9v22.4h23.2V18.2z"/>
<path class="st1" d="M19.4,56.1V29h81.3v27.1H19.4z"/>
<path class="st2" d="M118.1,106.5H1.9V87.1h116.1V106.5z M92.9,36.8H58.1v11.6h34.8V36.8z"/>
<path class="st3" d="M118.4,87.1l1.3-0.7l-17.2-30.7V27.1H89v-3.9h9.7V11.6H75.5v11.6h9.7v3.9H17.4v28.5L0.2,86.6l1,0.5H0v21.3h120
	V87.1H118.4z M79.4,19.4v-3.9h15.5v3.9H79.4z M98.7,31v23.2H21.3V31H98.7z M3.9,104.5V88l16.6-29.9h79l16.6,29.7v16.7H3.9z
	 M94.8,34.8H56.1v15.5h38.7V34.8z M91,46.5H60v-7.7h31V46.5z M85.2,65.8h-3.9v-3.9h3.9V65.8z M77.4,69.7h3.9v3.9h-3.9V69.7z
	 M89,73.5h-3.9v-3.9H89V73.5z M81.3,77.4h3.9v3.9h-3.9V77.4z M89,77.4h3.9v3.9H89V77.4z M77.4,65.8h-3.9v-3.9h3.9V65.8z M69.7,69.7
	h3.9v3.9h-3.9V69.7z M77.4,81.3h-3.9v-3.9h3.9V81.3z M69.7,65.8h-3.9v-3.9h3.9V65.8z M61.9,69.7h3.9v3.9h-3.9V69.7z M61.9,65.8h-3.9
	v-3.9h3.9V65.8z M54.2,69.7h3.9v3.9h-3.9V69.7z M54.2,65.8h-3.9v-3.9h3.9V65.8z M46.5,69.7h3.9v3.9h-3.9V69.7z M46.5,65.8h-3.9v-3.9
	h3.9V65.8z M38.7,69.7h3.9v3.9h-3.9V69.7z M46.5,81.3h-3.9v-3.9h3.9V81.3z M38.7,65.8h-3.9v-3.9h3.9V65.8z M38.7,81.3h-3.9v-3.9h3.9
	V81.3z M34.8,73.5H31v-3.9h3.9V73.5z M27.1,77.4H31v3.9h-3.9V77.4z M65.8,77.4h3.9v3.9h-3.9V77.4z M58.1,77.4h3.9v3.9h-3.9V77.4z
	 M50.3,77.4h3.9v3.9h-3.9V77.4z M46.5,94.8h27.1v3.9H46.5V94.8z M38.7,94.8h3.9v3.9h-3.9V94.8z M77.4,94.8h3.9v3.9h-3.9V94.8z
	 M52.3,50.3H25.2v-3.9h27.1V50.3z"/>
<path class="st0" d="M30.7,14.1l3.9,3.9l4.1-4.1l3.7,3.7l3.7-3.7l3.9,3.9v23.1H26.8v-23L30.7,14.1z"/>
<path class="st3" d="M46.5,11.6l-3.9,3.9l-3.9-3.9l-3.9,3.9L31,11.6l-5.8,5.8v25.2h27.1V17.4L46.5,11.6z M48.4,38.7H29V19l1.9-1.9
	l3.9,3.9l3.9-3.9l3.9,3.9l3.9-3.9l1.9,1.9V38.7z M32.9,31h11.6v3.9H32.9V31z M32.9,23.2h11.6v3.9H32.9V23.2z"/>
</svg>
