<?xml version="1.0" encoding="utf-8"?>
<!-- Generator: Adobe Illustrator 21.0.0, SVG Export Plug-In . SVG Version: 6.00 Build 0)  -->
<svg version="1.1" id="Layer_1" xmlns="http://www.w3.org/2000/svg" xmlns:xlink="http://www.w3.org/1999/xlink" x="0px" y="0px"
	 viewBox="0 0 510 100" style="enable-background:new 0 0 510 100;" xml:space="preserve">
<style type="text/css">
	.st0{fill:#FCC721;}
	.st1{fill:#FFFFFF;}
</style>
<g>
	<path class="st0" d="M404.5,98.3h-16.2V34.6c0-5.2,0.3-11.6,1-19.1H389c-1,4.3-1.9,7.4-2.7,9.3L357,98.3h-11.2l-29.4-73
		c-0.8-2.1-1.7-5.4-2.6-9.8h-0.3c0.4,3.9,0.5,10.4,0.5,19.3v63.5h-15.1V-0.1h23l25.9,65.5c2,5,3.2,8.8,3.8,11.2h0.3
		c1.7-5.2,3.1-9,4.1-11.5l26.3-65.2h22.2V98.3z M509.5,98.3h-17.9l-8.8-25h-38.7l-8.5,25h-17.8l36.8-98.4h18.4L509.5,98.3z
		 M478.4,59.9l-13.6-39.2c-0.4-1.3-0.8-3.3-1.3-6.2h-0.3c-0.4,2.6-0.9,4.7-1.4,6.2l-13.5,39.2H478.4z M100.1,49.9
		c0-13-4.9-24.8-13-33.7L45.1,58.1l0.3,0.2l4.1,0.6l3.4,3.2l3.2,1.2l3.2,2.4l-2.2,4.1v2.8l-4.5,4.1L49,81.8l-4.5,4.3l-0.6,5.3
		l-2.8-2.8l1.2-3.7l-1.6-2.4l3-10.9l-3.9-3l-0.6-3.9l1.5-2.2L16.4,86.9c8.9,8.1,20.7,13,33.7,13C77.7,99.9,100.1,77.5,100.1,49.9z
		 M82.3,22.7c0,0,12.1,12,10,32.5l-2.4-5l0.7-3l-4.9-2h-2.6l-1.1-2l-5.5,0.5l-1.2,1.7L71.7,46l-1.1-3.3l3.4-1.7l-1.6-2.4l4.6-2.1
		l1.2,1.7l1.8-1.6l0.1-1.7l-2.1-1.8l5.3-0.9l1.1,1.8h0.7l1.3-2.6L84.8,27l-2,3.7l-4.3,1.2l-1.7-1.1L82.3,22.7z M71.6,36.1l0.8-3.4
		l1.1-1.1l2.2,3.9L71,37.7l-1.3-1.1L71.6,36.1z M68.2,51.9l2.5-3.8l6-0.7l4.6-0.4l1.6,4l2.8-0.1l2.6,0.1l2,2.9l1.4,5
		C90,69.9,80.8,79,80.8,79l0-4.2l-2.1-1.5l1.4-4.7l0.2-3.9l-3.3-1.3l-2.5-2.1l-3.4,1l-2.8-0.1l-1.8-4.4L68.2,51.9z"/>
	<path class="st1" d="M187.5-0.1l-32.2,62.6v35.7H139V62.9l-31.4-63h18.6l19.3,42.2c0.2,0.5,0.9,2.4,2.1,5.7h0.2
		c0.4-1.5,1.2-3.4,2.3-5.7l20.2-42.2H187.5z M275.7,58.5c0,27.6-13.1,41.4-39.2,41.4c-25.1,0-37.6-13.3-37.6-39.8V-0.1h16.3v56.8
		c0,19.3,7.5,28.9,22.5,28.9c14.4,0,21.7-9.3,21.7-27.9V-0.1h16.3V58.5z M50.1-0.1c-27.6,0-50,22.4-50,50c0,14.6,6.3,27.8,16.3,37
		l24.2-24.2l0.1-0.1l-0.2-2.4L36,57.7l-3.7-1l-4.7-2L20,45.7l0.2-6.5l-3-2.8v-2.4l-3.7-2c0-0.9,3.9-8.2,6.3-9.5l6.5,2.2l1-1l-1.8-1
		v-1.6l-1.6-1.6l0.4-1.6l3,1.2l1.8-1.6l1.8,3.2l4.1-1.4l0.6,3.8l2-0.8l3,4.1l-6.1,2.4l-1.4,3l5.5,4.5l1.6-2.8l-0.6-4.7l1.4-0.4
		l3,3.6l0.4-1l1.8,0.2l1.2,3l3.7,0.4L50.4,39l-3.7-1l-1.4,2.2l2.6,1l-1,1.6l-4.9,2.8l-2,4.9l0.2,2.6l-0.8,0.6l-0.4-3L37.8,50
		l-3.9-0.6L32,51l0.4,3.2l2.2,0.4l2.8-1V56l3.6,2.8l1.8-2.4l2.4,1.7L87,16.2C77.9,6.2,64.7-0.1,50.1-0.1z M58.7,28.1l-0.8,3
		l-1.8-0.3L53.6,28L52,23.4l-1.3-4.9l-3,0.9l-1.4-2.2l3.2-1.8l-0.7-1.7l-3,1.3L43,17.8l-0.8,3.3l1.8-0.1l1.8,1.2l3.3,0.7L49,26.1
		h-2.5l1.2,2l-3-0.1l-1.4-4.5l-3-0.4l-0.7-2.4l1.4-1.4L40,17l-1.6-0.1l-1.2,1.3l-2.1-0.1l1.1-1.6l-0.8-1.6l-2.2,0.9l0.7,1.7
		l-0.3,1.1l-1.4,0.3l-1.1-3.2l-0.8-0.9l-2.2,2L27,15.7l2.8-1.8l2.2,0.5l1.6-0.8l-0.7-0.9l2.1-0.8l1.8,0.9l2.9,1.3l0.1-1.8l-2.1-2
		l3-0.5l0.8,2.4l1.6,1.2L44.1,9l5.7-0.3l2.1,3.7L57.8,9l4.5,1.2v1.4l0.9,0.8l1.7-1.2l2.8,1.6L66.3,18l-0.1,4.3l-2,2.6L61,25.7
		L58.7,28.1z M70,27.7l-2.1,1.8l-1.4,0.1l-2.4-2.9l2.5-1.4H70V27.7z"/>
</g>
</svg>
