<?xml version="1.0" encoding="utf-8"?>
<!-- Generator: Adobe Illustrator 21.0.0, SVG Export Plug-In . SVG Version: 6.00 Build 0)  -->
<svg version="1.1" id="Layer_1" xmlns="http://www.w3.org/2000/svg" xmlns:xlink="http://www.w3.org/1999/xlink" x="0px" y="0px"
	 viewBox="0 0 420 80" style="enable-background:new 0 0 420 80;" xml:space="preserve">
<style type="text/css">
	.st0{fill:#FFFFFF;}
	.st1{fill:#FCC71F;}
</style>
<g>
	<path class="st0" d="M118.4,3.2l-15,29.2v16.7h-7.6V32.6L81.1,3.2h8.7l9,19.7c0.1,0.2,0.4,1.1,1,2.7h0.1c0.2-0.7,0.5-1.6,1.1-2.7
		l9.4-19.7H118.4z M159.6,30.6c0,12.9-6.1,19.3-18.3,19.3c-11.7,0-17.5-6.2-17.5-18.6V3.2h7.6v26.5c0,9,3.5,13.5,10.5,13.5
		c6.7,0,10.1-4.3,10.1-13v-27h7.6V30.6z M219.6,49.1h-7.6V19.4c0-2.4,0.1-5.4,0.4-8.9h-0.1c-0.5,2-0.9,3.4-1.2,4.3l-13.7,34.3h-5.2
		l-13.7-34c-0.4-1-0.8-2.5-1.2-4.6h-0.1c0.2,1.8,0.3,4.8,0.3,9v29.6h-7V3.2h10.7l12.1,30.6c0.9,2.3,1.5,4.1,1.8,5.2h0.2
		c0.8-2.4,1.4-4.2,1.9-5.4l12.3-30.4h10.3V49.1z M268.6,49.1h-8.4l-4.1-11.7h-18l-4,11.7h-8.3L243,3.2h8.6L268.6,49.1z M254.1,31.2
		l-6.4-18.3c-0.2-0.6-0.4-1.6-0.6-2.9H247c-0.2,1.2-0.4,2.2-0.6,2.9l-6.3,18.3H254.1z M202,78.6L200,74c-0.4-0.9-0.9-1.6-1.3-1.9
		s-1-0.5-1.6-0.5h-1.9v6.9h-1.1V63h4.3c1.4,0,2.5,0.4,3.2,1.1c0.8,0.7,1.2,1.7,1.2,2.9c0,1.1-0.3,2.1-1,2.8s-1.5,1.2-2.7,1.5v0
		c0.6,0.2,1.2,1,1.8,2.2l2.3,5H202z M195.2,64v6.7h2.7c1.2,0,2.1-0.3,2.8-0.9c0.7-0.6,1-1.5,1-2.6c0-1-0.3-1.8-0.9-2.3
		c-0.6-0.6-1.5-0.8-2.7-0.8H195.2z M214.4,78.6V63h7.3v1h-6.2v6.2h5.7v1h-5.7v6.4h6.5v1H214.4z M238.4,78.6h-0.8L231.9,63h1.2
		l4.5,12.5c0.2,0.5,0.3,1,0.4,1.5h0c0.1-0.4,0.2-0.9,0.4-1.5l4.8-12.5h1.1L238.4,78.6z M261.1,78.9c-2.2,0-3.9-0.7-5.2-2.2
		c-1.3-1.5-2-3.4-2-5.7c0-2.5,0.7-4.5,2-6c1.3-1.5,3.2-2.2,5.5-2.2c2.1,0,3.8,0.7,5.1,2.2c1.3,1.4,1.9,3.3,1.9,5.6
		c0,2.6-0.7,4.6-2,6.1S263.3,78.9,261.1,78.9z M261.2,63.8c-1.8,0-3.3,0.7-4.5,2c-1.2,1.3-1.7,3-1.7,5.1c0,2.1,0.6,3.8,1.7,5.1
		c1.1,1.3,2.6,1.9,4.4,1.9c1.9,0,3.4-0.6,4.6-1.9c1.1-1.3,1.7-3,1.7-5.2c0-2.2-0.5-3.9-1.6-5.1C264.6,64.4,263.1,63.8,261.2,63.8z
		 M279.6,78.6V63h1.1v14.6h6.2v1H279.6z M307.8,72.4c0,4.3-1.8,6.5-5.5,6.5c-3.5,0-5.3-2.1-5.3-6.2V63h1.1v9.4
		c0,3.6,1.5,5.4,4.4,5.4c2.8,0,4.3-1.8,4.3-5.3V63h1.1V72.4z M323.8,64v14.6h-1.1V64h-4.5v-1h10v1H323.8z M338.9,78.6V63h1.1v15.5
		H338.9z M358.4,78.9c-2.2,0-3.9-0.7-5.2-2.2c-1.3-1.5-2-3.4-2-5.7c0-2.5,0.7-4.5,2-6c1.3-1.5,3.2-2.2,5.5-2.2
		c2.1,0,3.8,0.7,5.1,2.2c1.3,1.4,1.9,3.3,1.9,5.6c0,2.6-0.7,4.6-2,6.1S360.6,78.9,358.4,78.9z M358.5,63.8c-1.8,0-3.3,0.7-4.5,2
		c-1.2,1.3-1.7,3-1.7,5.1c0,2.1,0.6,3.8,1.7,5.1c1.1,1.3,2.6,1.9,4.4,1.9c1.9,0,3.4-0.6,4.6-1.9c1.1-1.3,1.7-3,1.7-5.2
		c0-2.2-0.5-3.9-1.6-5.1C361.9,64.4,360.4,63.8,358.5,63.8z M387.9,78.6L378.6,66c-0.2-0.3-0.4-0.5-0.5-0.8L378,65h0
		c0,0.2,0,0.4,0,0.7v12.9h-1.1V63h0.8l9.2,12.5c0.2,0.3,0.4,0.6,0.7,1h0.1c0-0.5-0.1-0.9-0.1-1.3V63h1.1v15.5H387.9z"/>
	<path class="st1" d="M282.5,32.5v16.6h-7.6V3.2h13.9c5.3,0,9.4,1.2,12.3,3.7c2.9,2.5,4.4,5.9,4.4,10.4c0,4.5-1.5,8.1-4.5,10.9
		c-3,2.8-7.1,4.3-12.3,4.3H282.5z M282.5,9.5v16.8h4.9c3.3,0,5.7-0.8,7.5-2.3c1.7-1.5,2.6-3.6,2.6-6.4c0-5.4-3.1-8.1-9.4-8.1H282.5z
		 M332.1,49.9c-6.6,0-11.9-2.1-15.9-6.4c-4-4.3-6-9.9-6-16.7c0-7.4,2-13.3,6.1-17.7c4.1-4.4,9.6-6.6,16.5-6.6
		c6.4,0,11.6,2.1,15.6,6.4c3.9,4.3,5.9,9.8,5.9,16.7c0,7.5-2,13.4-6,17.8S338.8,49.9,332.1,49.9z M332.4,9.2
		c-4.2,0-7.6,1.6-10.3,4.7c-2.6,3.1-4,7.3-4,12.4c0,5.1,1.3,9.2,3.8,12.3c2.6,3.1,5.9,4.7,10,4.7c4.4,0,7.9-1.5,10.4-4.4
		c2.5-3,3.8-7.1,3.8-12.4c0-5.5-1.2-9.7-3.7-12.7C340.2,10.7,336.8,9.2,332.4,9.2z M360.6,47.3v-7.8c0.7,0.6,1.5,1.2,2.5,1.7
		c1,0.5,2,0.9,3.1,1.3s2.2,0.6,3.3,0.8s2.1,0.3,3,0.3c3.2,0,5.6-0.5,7.2-1.6c1.6-1.1,2.4-2.6,2.4-4.6c0-1.1-0.3-2-0.8-2.8
		c-0.5-0.8-1.3-1.5-2.2-2.2c-0.9-0.7-2-1.3-3.3-1.9c-1.3-0.6-2.6-1.2-4.1-1.9c-1.6-0.8-3-1.7-4.4-2.5c-1.3-0.9-2.5-1.8-3.5-2.8
		c-1-1-1.8-2.2-2.3-3.5c-0.6-1.3-0.8-2.8-0.8-4.6c0-2.2,0.5-4,1.5-5.6c1-1.6,2.2-2.9,3.8-3.9c1.6-1,3.4-1.8,5.4-2.3
		c2-0.5,4.1-0.8,6.2-0.8c4.8,0,8.3,0.5,10.5,1.6v7.5c-2.6-1.9-6-2.8-10-2.8c-1.1,0-2.3,0.1-3.4,0.3c-1.1,0.2-2.1,0.6-3,1.1
		c-0.9,0.5-1.6,1.1-2.2,1.9c-0.6,0.8-0.8,1.7-0.8,2.8c0,1,0.2,1.9,0.6,2.7c0.4,0.7,1.1,1.4,1.9,2c0.8,0.6,1.8,1.2,3,1.8
		c1.2,0.6,2.6,1.2,4.1,1.9c1.6,0.8,3.1,1.7,4.5,2.6c1.4,0.9,2.7,1.9,3.7,3c1.1,1.1,1.9,2.3,2.6,3.7c0.6,1.4,0.9,2.9,0.9,4.6
		c0,2.3-0.5,4.3-1.4,5.9c-0.9,1.6-2.2,2.9-3.8,3.9c-1.6,1-3.4,1.7-5.5,2.2c-2.1,0.4-4.3,0.7-6.6,0.7c-0.8,0-1.7-0.1-2.8-0.2
		c-1.1-0.1-2.3-0.3-3.4-0.5c-1.2-0.2-2.3-0.5-3.3-0.8C362.1,48.1,361.2,47.7,360.6,47.3z M82.3,78v-1.2c1.1,0.7,2.2,1.1,3.4,1.1
		c1.2,0,2.1-0.3,2.8-0.8c0.6-0.5,0.9-1.2,0.9-2.1c0-0.8-0.2-1.4-0.6-1.9c-0.4-0.5-1.3-1.1-2.7-1.9c-1.6-0.9-2.6-1.7-3-2.3
		c-0.4-0.6-0.6-1.3-0.6-2.1c0-1.1,0.4-2,1.3-2.8c0.9-0.8,2-1.1,3.4-1.1c0.9,0,1.8,0.2,2.8,0.5v1.1c-0.9-0.4-1.9-0.6-2.9-0.6
		c-1.1,0-1.9,0.3-2.5,0.8c-0.6,0.5-0.9,1.2-0.9,2c0,0.8,0.2,1.4,0.6,1.9c0.4,0.5,1.3,1.1,2.7,1.9c1.5,0.8,2.4,1.6,2.9,2.2
		c0.5,0.6,0.7,1.4,0.7,2.2c0,1.2-0.4,2.2-1.2,2.9s-2,1.1-3.5,1.1c-0.5,0-1.2-0.1-1.8-0.2C83.2,78.4,82.7,78.2,82.3,78z M111.9,78.6
		l-1.8-4.8h-6.7l-1.8,4.8h-1.2l5.9-15.5h1l5.8,15.5H111.9z M107.2,65.6c-0.1-0.2-0.1-0.4-0.2-0.6c-0.1-0.2-0.1-0.4-0.2-0.5h0
		c-0.1,0.5-0.2,0.9-0.4,1.2l-2.6,7.2h6L107.2,65.6z M123.8,78.6V63h1.1v14.6h6.2v1H123.8z M141.9,78.6V63h7.3v1H143v6.2h5.7v1H143
		v6.4h6.5v1H141.9z M160.5,78v-1.2c1.1,0.7,2.2,1.1,3.4,1.1c1.2,0,2.1-0.3,2.8-0.8c0.6-0.5,0.9-1.2,0.9-2.1c0-0.8-0.2-1.4-0.6-1.9
		c-0.4-0.5-1.3-1.1-2.7-1.9c-1.6-0.9-2.6-1.7-3-2.3c-0.4-0.6-0.6-1.3-0.6-2.1c0-1.1,0.4-2,1.3-2.8s2-1.1,3.4-1.1
		c0.9,0,1.8,0.2,2.8,0.5v1.1c-0.9-0.4-1.9-0.6-2.9-0.6c-1.1,0-1.9,0.3-2.5,0.8c-0.6,0.5-0.9,1.2-0.9,2c0,0.8,0.2,1.4,0.6,1.9
		c0.4,0.5,1.3,1.1,2.7,1.9c1.5,0.8,2.4,1.6,2.9,2.2c0.5,0.6,0.7,1.4,0.7,2.2c0,1.2-0.4,2.2-1.2,2.9c-0.8,0.8-2,1.1-3.5,1.1
		c-0.5,0-1.2-0.1-1.8-0.2C161.4,78.4,160.9,78.2,160.5,78z M10.8,64.6h4.6V80H0v-4.6h10.8L10.8,64.6z M36.9,43.1h-4.6v10.8H21.5v4.6
		h15.4V43.1z M36.9,21.5h-4.6v10.8H21.5v4.6h15.4V21.5z M36.9,0h-4.6v10.8H21.5v4.6h15.4V0z M10.8,32.3H0v4.6h15.4V21.5h-4.6
		L10.8,32.3z M10.8,53.8H0v4.6h15.4V43.1h-4.6L10.8,53.8z M53.8,32.3H43.1v4.6h15.4V21.5h-4.6V32.3z M53.8,0v10.8H43.1v4.6h15.4V0
		L53.8,0z M53.8,53.8H43.1v4.6h15.4V43.1h-4.6V53.8z M53.8,75.4H21.5V80h21.5h10.8h4.6V64.6h-4.6V75.4z M10.8,10.8H0v4.6h15.4V0
		h-4.6L10.8,10.8z"/>
</g>
</svg>
